<svg width="1868" height="1441" viewBox="0 0 1868 1441" fill="none" xmlns="http://www.w3.org/2000/svg">
<rect width="1868" height="1441" fill="#001219"/>
<path d="M300.65 545.435L288.219 569.379V583H282.057V569.379L269.572 545.435H276.436L285.138 563.866L293.84 545.435H300.65ZM318.458 583.486C315.648 583.486 313.107 582.856 310.837 581.595C308.567 580.298 306.783 578.496 305.486 576.19C304.189 573.848 303.54 571.145 303.54 568.082C303.54 565.055 304.207 562.371 305.54 560.029C306.873 557.687 308.693 555.885 310.999 554.624C313.305 553.363 315.882 552.732 318.728 552.732C321.575 552.732 324.151 553.363 326.458 554.624C328.764 555.885 330.583 557.687 331.917 560.029C333.25 562.371 333.916 565.055 333.916 568.082C333.916 571.109 333.232 573.794 331.862 576.136C330.493 578.478 328.619 580.298 326.241 581.595C323.899 582.856 321.305 583.486 318.458 583.486ZM318.458 578.136C320.044 578.136 321.521 577.757 322.89 577C324.296 576.244 325.431 575.109 326.295 573.595C327.16 572.082 327.593 570.244 327.593 568.082C327.593 565.92 327.178 564.101 326.349 562.623C325.521 561.11 324.422 559.975 323.052 559.218C321.683 558.461 320.206 558.083 318.62 558.083C317.035 558.083 315.557 558.461 314.188 559.218C312.855 559.975 311.792 561.11 310.999 562.623C310.207 564.101 309.81 565.92 309.81 568.082C309.81 571.289 310.621 573.776 312.242 575.541C313.9 577.271 315.972 578.136 318.458 578.136ZM366.978 553.219V583H360.817V579.487C359.844 580.712 358.565 581.685 356.979 582.405C355.43 583.09 353.772 583.432 352.007 583.432C349.664 583.432 347.556 582.946 345.683 581.973C343.845 581 342.386 579.559 341.305 577.649C340.26 575.739 339.737 573.433 339.737 570.731V553.219H345.845V569.812C345.845 572.478 346.512 574.532 347.845 575.974C349.178 577.379 350.998 578.081 353.304 578.081C355.61 578.081 357.43 577.379 358.763 575.974C360.132 574.532 360.817 572.478 360.817 569.812V553.219H366.978ZM381.27 557.543C382.171 556.029 383.36 554.858 384.837 554.029C386.351 553.165 388.134 552.732 390.188 552.732V559.11H388.621C386.206 559.11 384.369 559.723 383.108 560.948C381.882 562.173 381.27 564.299 381.27 567.326V583H375.108V553.219H381.27V557.543ZM422.162 545.435C426.161 545.435 429.656 546.21 432.647 547.76C435.674 549.273 437.998 551.471 439.62 554.354C441.277 557.2 442.106 560.533 442.106 564.353C442.106 568.172 441.277 571.487 439.62 574.298C437.998 577.109 435.674 579.271 432.647 580.784C429.656 582.261 426.161 583 422.162 583H409.892V545.435H422.162ZM422.162 577.973C426.558 577.973 429.927 576.784 432.269 574.406C434.611 572.028 435.782 568.677 435.782 564.353C435.782 559.993 434.611 556.588 432.269 554.137C429.927 551.687 426.558 550.462 422.162 550.462H416.054V577.973H422.162ZM446.159 567.974C446.159 564.983 446.771 562.335 447.996 560.029C449.258 557.723 450.951 555.939 453.077 554.678C455.239 553.381 457.617 552.732 460.212 552.732C462.554 552.732 464.59 553.201 466.319 554.137C468.085 555.038 469.49 556.173 470.535 557.543V553.219H476.751V583H470.535V578.568C469.49 579.973 468.067 581.144 466.265 582.081C464.464 583.018 462.41 583.486 460.104 583.486C457.545 583.486 455.203 582.838 453.077 581.541C450.951 580.207 449.258 578.37 447.996 576.028C446.771 573.649 446.159 570.965 446.159 567.974ZM470.535 568.082C470.535 566.028 470.103 564.245 469.238 562.731C468.409 561.218 467.31 560.065 465.941 559.272C464.572 558.479 463.094 558.083 461.509 558.083C459.923 558.083 458.446 558.479 457.077 559.272C455.708 560.029 454.591 561.164 453.726 562.677C452.897 564.155 452.483 565.92 452.483 567.974C452.483 570.028 452.897 571.83 453.726 573.379C454.591 574.929 455.708 576.118 457.077 576.946C458.482 577.739 459.959 578.136 461.509 578.136C463.094 578.136 464.572 577.739 465.941 576.946C467.31 576.154 468.409 575.001 469.238 573.487C470.103 571.938 470.535 570.136 470.535 568.082ZM492.033 558.245V574.73C492.033 575.847 492.285 576.658 492.789 577.163C493.33 577.631 494.231 577.865 495.492 577.865H499.275V583H494.411C491.636 583 489.51 582.351 488.033 581.054C486.556 579.757 485.817 577.649 485.817 574.73V558.245H482.304V553.219H485.817V545.814H492.033V553.219H499.275V558.245H492.033ZM502.901 567.974C502.901 564.983 503.513 562.335 504.738 560.029C505.999 557.723 507.693 555.939 509.819 554.678C511.981 553.381 514.359 552.732 516.953 552.732C519.296 552.732 521.331 553.201 523.061 554.137C524.827 555.038 526.232 556.173 527.277 557.543V553.219H533.493V583H527.277V578.568C526.232 579.973 524.809 581.144 523.007 582.081C521.205 583.018 519.151 583.486 516.845 583.486C514.287 583.486 511.945 582.838 509.819 581.541C507.693 580.207 505.999 578.37 504.738 576.028C503.513 573.649 502.901 570.965 502.901 567.974ZM527.277 568.082C527.277 566.028 526.845 564.245 525.98 562.731C525.151 561.218 524.052 560.065 522.683 559.272C521.313 558.479 519.836 558.083 518.251 558.083C516.665 558.083 515.188 558.479 513.819 559.272C512.449 560.029 511.332 561.164 510.467 562.677C509.639 564.155 509.224 565.92 509.224 567.974C509.224 570.028 509.639 571.83 510.467 573.379C511.332 574.929 512.449 576.118 513.819 576.946C515.224 577.739 516.701 578.136 518.251 578.136C519.836 578.136 521.313 577.739 522.683 576.946C524.052 576.154 525.151 575.001 525.98 573.487C526.845 571.938 527.277 570.136 527.277 568.082ZM561.788 550.408V561.434H574.76V566.461H561.788V577.973H576.381V583H555.626V545.381H576.381V550.408H561.788ZM594.781 583.486C592.438 583.486 590.33 583.072 588.457 582.243C586.619 581.379 585.16 580.225 584.079 578.784C582.998 577.307 582.421 575.667 582.349 573.866H588.727C588.835 575.127 589.43 576.19 590.511 577.055C591.628 577.883 593.015 578.298 594.672 578.298C596.402 578.298 597.735 577.973 598.672 577.325C599.645 576.64 600.131 575.775 600.131 574.73C600.131 573.613 599.591 572.785 598.51 572.244C597.465 571.704 595.789 571.109 593.483 570.46C591.249 569.848 589.43 569.253 588.024 568.677C586.619 568.1 585.394 567.217 584.349 566.028C583.34 564.839 582.835 563.272 582.835 561.326C582.835 559.741 583.304 558.299 584.241 557.002C585.178 555.669 586.511 554.624 588.24 553.867C590.006 553.11 592.024 552.732 594.294 552.732C597.681 552.732 600.402 553.597 602.456 555.327C604.545 557.02 605.663 559.344 605.807 562.299H599.645C599.537 560.966 598.996 559.903 598.023 559.11C597.051 558.317 595.735 557.921 594.078 557.921C592.456 557.921 591.213 558.227 590.348 558.84C589.484 559.452 589.051 560.263 589.051 561.272C589.051 562.065 589.339 562.731 589.916 563.272C590.493 563.812 591.195 564.245 592.024 564.569C592.853 564.857 594.078 565.236 595.699 565.704C597.861 566.281 599.627 566.875 600.996 567.488C602.402 568.064 603.609 568.929 604.618 570.082C605.626 571.235 606.149 572.767 606.185 574.676C606.185 576.37 605.717 577.883 604.78 579.217C603.843 580.55 602.51 581.595 600.78 582.351C599.086 583.108 597.087 583.486 594.781 583.486ZM620.031 558.245V574.73C620.031 575.847 620.284 576.658 620.788 577.163C621.329 577.631 622.229 577.865 623.491 577.865H627.274V583H622.41C619.635 583 617.509 582.351 616.032 581.054C614.554 579.757 613.816 577.649 613.816 574.73V558.245H610.302V553.219H613.816V545.814H620.031V553.219H627.274V558.245H620.031ZM630.899 567.974C630.899 564.983 631.512 562.335 632.737 560.029C633.998 557.723 635.692 555.939 637.818 554.678C639.98 553.381 642.358 552.732 644.952 552.732C647.294 552.732 649.33 553.201 651.06 554.137C652.825 555.038 654.231 556.173 655.276 557.543V553.219H661.491V583H655.276V578.568C654.231 579.973 652.807 581.144 651.006 582.081C649.204 583.018 647.15 583.486 644.844 583.486C642.286 583.486 639.944 582.838 637.818 581.541C635.692 580.207 633.998 578.37 632.737 576.028C631.512 573.649 630.899 570.965 630.899 567.974ZM655.276 568.082C655.276 566.028 654.843 564.245 653.979 562.731C653.15 561.218 652.051 560.065 650.681 559.272C649.312 558.479 647.835 558.083 646.249 558.083C644.664 558.083 643.187 558.479 641.817 559.272C640.448 560.029 639.331 561.164 638.466 562.677C637.637 564.155 637.223 565.92 637.223 567.974C637.223 570.028 637.637 571.83 638.466 573.379C639.331 574.929 640.448 576.118 641.817 576.946C643.223 577.739 644.7 578.136 646.249 578.136C647.835 578.136 649.312 577.739 650.681 576.946C652.051 576.154 653.15 575.001 653.979 573.487C654.843 571.938 655.276 570.136 655.276 568.082ZM676.773 558.245V574.73C676.773 575.847 677.025 576.658 677.53 577.163C678.07 577.631 678.971 577.865 680.232 577.865H684.016V583H679.151C676.377 583 674.251 582.351 672.773 581.054C671.296 579.757 670.557 577.649 670.557 574.73V558.245H667.044V553.219H670.557V545.814H676.773V553.219H684.016V558.245H676.773ZM716.99 567.38C716.99 568.497 716.918 569.506 716.774 570.406H694.019C694.199 572.785 695.082 574.694 696.667 576.136C698.253 577.577 700.199 578.298 702.505 578.298C705.82 578.298 708.162 576.91 709.531 574.136H716.179C715.278 576.874 713.639 579.126 711.261 580.892C708.919 582.622 706 583.486 702.505 583.486C699.658 583.486 697.1 582.856 694.83 581.595C692.596 580.298 690.83 578.496 689.533 576.19C688.272 573.848 687.641 571.145 687.641 568.082C687.641 565.019 688.254 562.335 689.479 560.029C690.74 557.687 692.487 555.885 694.722 554.624C696.992 553.363 699.586 552.732 702.505 552.732C705.315 552.732 707.82 553.345 710.018 554.57C712.216 555.795 713.927 557.525 715.152 559.759C716.377 561.957 716.99 564.497 716.99 567.38ZM710.558 565.434C710.522 563.164 709.711 561.344 708.126 559.975C706.54 558.606 704.577 557.921 702.234 557.921C700.108 557.921 698.289 558.606 696.775 559.975C695.262 561.308 694.361 563.128 694.073 565.434H710.558Z" fill="white"/>
<path opacity="0.15" d="M1070.06 1362.28C1183.8 1362.28 1276 1347.87 1276 1330.1C1276 1312.33 1183.8 1297.93 1070.06 1297.93C956.318 1297.93 864.114 1312.33 864.114 1330.1C864.114 1347.87 956.318 1362.28 1070.06 1362.28Z" fill="black"/>
<path d="M1038.55 1284.22L1034.64 1291.91C1034.64 1291.91 1033.77 1295.4 1027.26 1300.66C1020.76 1305.91 995.804 1319.24 995.507 1328.43C995.209 1337.61 1013.73 1342.19 1030.71 1341.26C1047.7 1340.33 1052.81 1333.55 1049.05 1323.87C1047.68 1319.21 1058.91 1318.42 1064.63 1314.24C1070.36 1310.07 1067.43 1299.85 1066.1 1289.99" fill="#323232"/>
<path d="M1099.32 1286.88L1102.54 1294.87C1102.54 1294.87 1103.1 1298.43 1109.13 1304.24C1115.15 1310.04 1138.84 1325.5 1138.33 1334.67C1137.83 1343.85 1118.98 1346.79 1102.14 1344.38C1085.3 1341.97 1080.8 1334.77 1085.4 1325.46C1087.16 1320.94 1076.05 1319.17 1070.71 1314.51C1065.37 1309.85 1069.19 1299.92 1071.37 1290.22" fill="#323232"/>
<g style="mix-blend-mode:soft-light" opacity="0.3">
<path d="M1050.08 1327.81C1051.12 1335.35 1045.29 1340.46 1030.72 1341.25C1013.72 1342.18 995.213 1337.61 995.508 1328.43C995.804 1319.24 1020.76 1305.9 1027.26 1300.65C1033.77 1295.4 1034.63 1291.92 1034.63 1291.92L1038.54 1284.22L1066.09 1290C1066.23 1291.03 1066.38 1292.06 1066.55 1293.1C1063.99 1295.4 1057.78 1299.42 1046.24 1298.83C1030.24 1298.03 1019.79 1310.65 1027.78 1322.56C1032.61 1329.78 1042.79 1329.3 1050.08 1327.81ZM1138.33 1334.68C1137.82 1343.84 1118.98 1346.78 1102.13 1344.38C1085.3 1341.97 1080.8 1334.77 1085.4 1325.46C1087.16 1320.94 1076.06 1319.18 1070.7 1314.52C1065.37 1309.84 1069.18 1299.92 1071.38 1290.23L1099.32 1286.88L1100.61 1290.08C1096.75 1292 1091.39 1294.29 1085.78 1295.43C1074.88 1297.65 1092.89 1316.06 1112.2 1327.36C1121.68 1332.9 1130.59 1332.65 1136.83 1329.78C1137.87 1331.54 1138.41 1333.18 1138.33 1334.68Z" fill="black"/>
</g>
<path d="M1101.1 1287.73C1095.44 1289.99 1089.42 1291.26 1083.32 1291.48C1077.89 1291.73 1072.46 1290.99 1067.29 1289.3C1067.27 1289.32 1067.25 1289.32 1067.23 1289.34C1061.84 1292.65 1055.49 1293.7 1049.78 1293.77C1044.49 1293.81 1039.23 1293.13 1034.13 1291.76L1000.01 947.273L1016.38 928.929C1016.38 928.929 1141.96 845.229 1143.69 943.063C1143.72 944.71 1143.73 946.42 1143.74 948.172C1143.92 1049.19 1101.1 1287.73 1101.1 1287.73Z" fill="#282828"/>
<path d="M1082.27 985.33L1080.92 1023.35L1079.35 1061.36L1075.85 1137.37L1071.86 1213.35L1069.69 1251.33L1067.29 1289.31L1068.64 1251.29L1070.22 1213.28L1073.72 1137.27L1077.71 1061.29L1079.88 1023.3L1082.27 985.33Z" fill="#282828"/>
<g style="mix-blend-mode:soft-light" opacity="0.3">
<path d="M1143.69 943.063C1141.96 845.229 1016.38 928.929 1016.38 928.929L1000.01 947.273L1034.13 1291.76C1039.23 1293.13 1044.49 1293.81 1049.78 1293.77C1048.46 1260.77 1044.55 1083.95 1041.4 990.793C1055.33 991.081 1069.18 988.161 1082.33 983.479L1081.91 991.902L1081.64 997.146L1067.48 1283.99L1067.45 1284.8L1067.23 1289.34C1067.25 1289.32 1067.27 1289.32 1067.29 1289.3C1072.46 1290.99 1077.89 1291.73 1083.32 1291.48C1096.29 1202.28 1109.91 1017.12 1113.37 968.896C1123.97 962.704 1134.11 955.779 1143.74 948.172C1143.73 946.42 1143.72 944.71 1143.69 943.063Z" fill="black"/>
</g>
<path d="M1151.13 892.681C1148.93 918.504 1146.77 940.696 1146.77 940.696C1146.77 940.696 1131.6 953.003 1108.69 964.951C1099.95 958.928 1079.43 940.253 1079.43 940.253C1079.43 940.253 1077.85 943.111 1052.65 969.189C1039.96 967.587 997.202 945.867 997.202 945.867L1002.26 892.369C1002.26 892.369 995.026 878.335 985.377 856.481C977.888 839.508 968.96 817.792 960.859 794.275C954.921 777.028 949.433 758.796 945.305 740.752C961.526 723.833 995.778 699.496 995.778 699.496L1052.58 676.338L1102.3 685.371L1139.45 692.123C1139.45 692.123 1154.95 758.571 1155.45 830.219C1154.89 845.985 1153 870.646 1151.13 892.681Z" fill="#424242"/>
<path d="M1079.44 940.262C1079.17 934.469 1079.26 928.765 1079.28 923.049C1079.36 917.33 1079.34 911.644 1079.62 905.848C1081.02 911.486 1081.44 917.298 1081.41 923.067C1081.32 928.838 1080.85 934.624 1079.44 940.262Z" fill="black"/>
<g style="mix-blend-mode:soft-light" opacity="0.3">
<path d="M1151.13 892.682C1148.93 918.506 1146.76 940.698 1146.76 940.698C1146.76 940.698 1131.6 953.005 1108.69 964.952C1099.95 958.929 1079.43 940.254 1079.43 940.254C1079.43 940.254 1077.85 943.112 1052.65 969.191C1039.96 967.589 997.202 945.869 997.202 945.869L1002.26 892.371C1002.26 892.371 995.026 878.336 985.377 856.482C1003.25 865.918 1083.87 905.64 1151.13 892.682Z" fill="black"/>
</g>
<path d="M1046.15 878.305L1037.32 883.688L1033.95 878.156L977.37 785.403C977.128 785.011 976.966 784.575 976.893 784.121C976.819 783.666 976.837 783.201 976.944 782.753C977.051 782.305 977.245 781.883 977.516 781.51C977.787 781.137 978.129 780.822 978.522 780.582L979.753 779.823L981.378 778.847C982.171 778.368 983.121 778.222 984.021 778.442C984.921 778.661 985.698 779.228 986.18 780.019L1046.15 878.305Z" fill="#3771C4"/>
<g style="mix-blend-mode:soft-light" opacity="0.3">
<path d="M1038.19 875.586L1033.95 878.157L977.37 785.404C977.128 785.012 976.966 784.576 976.893 784.121C976.819 783.667 976.837 783.202 976.944 782.754C977.051 782.306 977.245 781.884 977.516 781.511C977.787 781.138 978.129 780.823 978.522 780.582L979.753 779.824L1038.19 875.586Z" fill="black"/>
</g>
<path d="M1028.58 771.997L1072.9 823.65L1078.69 751.334C1078.69 751.334 1048.02 748.321 1028.58 771.997ZM989.685 908.531C981.773 915.732 973.468 922.488 964.807 928.769C955.14 935.654 944.918 941.553 938.628 941.15C923.871 940.227 912.889 930.26 904.137 900.624C901.693 867.055 945.305 740.754 945.305 740.754C951.964 769.849 962.132 799.375 972.063 824.575C967.014 841.235 957.288 876.815 957.288 876.815L971.709 873.193C976.828 877.883 980.968 885.393 983.959 892.297C986.247 897.567 988.16 902.992 989.685 908.531Z" fill="#DBDBDB"/>
<path d="M967.985 877.906L971.709 873.192C971.709 873.192 974.726 861.791 975.219 850.525C975.712 839.259 978.236 838.951 991.304 834.296C1004.37 829.642 1017.16 829.051 1025.48 833.317C1033.8 837.582 1035.46 875.979 1035.46 875.979C1035.46 875.979 1023.13 880.595 1019.84 882.542C1018.1 890.409 1023.44 896.253 989.218 906.863C954.996 917.473 967.985 877.906 967.985 877.906Z" fill="#E89C69"/>
<g style="mix-blend-mode:soft-light" opacity="0.3">
<path d="M1025.48 833.32C1022.18 831.616 1018.15 830.692 1013.71 830.477C1015.37 832.835 1017.41 836.023 1017.35 837.43C1017.28 838.838 1009.92 841.507 1003.49 843.171C1000.84 843.835 998.062 843.753 995.456 842.934C992.85 842.115 990.522 840.59 988.73 838.53C987.997 837.686 987.244 836.819 986.531 835.998C977.58 839.239 975.651 840.8 975.225 850.525C974.732 861.786 971.71 873.193 971.71 873.193L967.975 877.901C967.975 877.901 954.996 917.463 989.223 906.865C1023.43 896.245 1018.1 890.413 1019.84 882.54C1023.13 880.59 1035.46 875.979 1035.46 875.979C1035.46 875.979 1033.8 837.573 1025.48 833.32ZM997.807 851.961L996.39 849.164L1020.72 841.916L1022.3 850.297L1006.76 855.6C1005.08 856.171 1003.25 856.116 1001.6 855.448C999.959 854.78 998.611 853.542 997.807 851.961ZM1003.76 861.623L1023.07 854.219L1024.66 861.704L1012.38 865.334C1010.74 865.812 1008.98 865.703 1007.4 865.026C1005.83 864.349 1004.54 863.146 1003.76 861.623ZM1015.87 877.367C1012.14 876.797 1010.38 872.447 1010.38 872.447L1010.39 872.17L1025.24 865.703L1027.31 872.482L1015.87 877.367Z" fill="black"/>
</g>
<path d="M989.684 908.531C981.773 915.732 973.468 922.488 964.807 928.769C964.007 921.148 960.392 911.417 956.457 902.634C952.97 894.944 949.096 887.436 944.848 880.139L971.709 873.193C976.828 877.883 980.968 885.393 983.959 892.298C986.247 897.568 988.16 902.992 989.684 908.531Z" fill="#F0F0F2"/>
<path d="M1129.09 897.082L1036.58 914.214L1014.59 798.699L1110.34 783.141L1114.21 806.665L1127.18 885.503L1129.09 897.082Z" fill="#A78961"/>
<path d="M1067.56 807.958C1067.56 807.958 1071.43 806.952 1076.79 805.584C1077.67 809.019 1078.72 812.848 1079.93 816.96C1061.6 817.035 1061.63 810.626 1067.56 807.958ZM1085.88 835.981C1081.04 837.116 1076.17 837.78 1072.3 837.311C1064.62 836.399 1071.52 829.883 1082.02 823.868C1083.22 827.788 1084.54 831.863 1085.88 835.981ZM1088.68 844.245C1090.06 848.365 1091.48 852.445 1092.91 856.396C1081.39 860.765 1079.03 857.584 1082.47 851.666C1083.74 849.478 1086.02 846.885 1088.68 844.245ZM1098.35 871.015C1099.23 873.275 1100.08 875.428 1100.87 877.428C1100.68 877.483 1100.48 877.517 1100.29 877.531C1097.19 877.887 1096.97 875.185 1098.35 871.015ZM1244.47 862.359C1242.4 865.709 1239.08 868.705 1234.24 871.293C1223.4 877.101 1202.74 876.732 1184.84 874.924C1169.77 873.389 1156.62 870.827 1152.98 870.069C1152.32 869.934 1151.96 869.854 1151.96 869.854C1151.96 869.854 1149.39 874.977 1145.41 877.901C1138.86 862.379 1127.86 835.744 1127.87 835.467C1127.88 835.318 1135.96 833.299 1144.61 831.177C1148.19 834.923 1150.17 836.442 1151.4 836.88C1151.88 837.051 1153.28 836.855 1155.18 836.426C1161.83 834.943 1174.52 830.775 1174.52 830.775L1154.7 805.378C1152.13 755.522 1143.71 712.033 1140.61 697.388C1140.57 697.261 1140.54 697.131 1140.52 697C1140.41 696.546 1140.32 696.136 1140.25 695.749C1140.06 694.843 1139.9 694.109 1139.75 693.526C1139.75 693.523 1139.75 693.52 1139.75 693.516C1139.74 693.512 1139.74 693.508 1139.74 693.504C1139.74 693.5 1139.75 693.496 1139.75 693.493C1139.75 693.489 1139.75 693.486 1139.75 693.483C1139.68 693.181 1139.63 692.943 1139.59 692.75C1139.58 692.724 1139.57 692.693 1139.58 692.664C1139.54 692.572 1139.52 692.478 1139.5 692.383C1139.49 692.326 1139.49 692.268 1139.49 692.211C1142.22 695.835 1219.51 799.557 1233.24 819.475C1244.1 835.227 1251.73 850.775 1244.47 862.359Z" fill="#DBDBDB"/>
<path d="M1184.84 874.924C1169.77 873.389 1156.62 870.827 1152.98 870.07C1152.32 869.934 1151.96 869.854 1151.96 869.854C1151.96 869.854 1149.39 874.977 1145.41 877.901C1138.86 862.38 1127.86 835.744 1127.87 835.467C1127.88 835.318 1135.96 833.299 1144.61 831.177C1148.19 834.923 1150.17 836.442 1151.4 836.88C1151.88 837.051 1153.28 836.855 1155.18 836.426C1161.83 834.943 1174.52 830.775 1174.52 830.775C1176.07 833.407 1177.45 836.129 1178.68 838.927C1181.32 844.919 1184.41 853.601 1185.21 862.996C1185.58 866.972 1185.46 870.978 1184.84 874.924Z" fill="#F0F0F2"/>
<path d="M992.23 850.398C997.06 848.172 1002.05 846.315 1007.16 844.843C1012.24 843.277 1017.44 842.104 1022.7 841.332C1017.87 843.562 1012.88 845.419 1007.77 846.887C1002.69 848.448 997.491 849.622 992.23 850.398ZM1000.48 862.882C1004.26 860.625 1008.24 858.717 1012.36 857.184C1016.46 855.561 1020.69 854.321 1025.01 853.478C1021.24 855.739 1017.26 857.647 1013.13 859.176C1009.03 860.794 1004.8 862.035 1000.48 862.882ZM1007.54 873.643C1010.48 871.58 1013.65 869.853 1016.99 868.495C1020.28 867.05 1023.73 865.982 1027.27 865.312C1024.32 867.379 1021.15 869.106 1017.82 870.46C1014.52 871.901 1011.07 872.968 1007.54 873.643Z" fill="#874630"/>
<g style="mix-blend-mode:soft-light" opacity="0.3">
<path d="M1129.09 897.083L1036.58 914.214L1014.59 798.699L1129.09 897.083Z" fill="black"/>
</g>
<g style="mix-blend-mode:soft-light" opacity="0.3">
<path d="M960.859 794.275C954.921 777.028 949.433 758.796 945.305 740.752C961.526 723.833 995.778 699.496 995.778 699.496L1052.58 676.338L1102.3 685.371C1094.48 719.965 1064.22 808.089 960.859 794.275Z" fill="black"/>
</g>
<path d="M1056.69 669.735L1000.18 688.365L1025.26 764.327L1081.77 745.697L1056.69 669.735Z" fill="#E89C69"/>
<g style="mix-blend-mode:soft-light" opacity="0.3">
<path d="M1081.77 745.694L1025.25 764.335L1000.18 688.366L1056.7 669.746L1070.31 710.962C1069.64 711.407 1068.99 711.892 1068.38 712.416C1068.38 712.416 1049.86 728.615 1039.44 734.143C1029.02 739.692 1046.84 746.881 1057.77 742.337C1064.15 739.689 1070.9 732.676 1075.48 726.68L1081.77 745.694Z" fill="black"/>
</g>
<path d="M1047.73 747.069C1047.73 747.069 1010.66 736.8 1002.08 738.893C993.508 740.985 991.646 757.18 1000.79 771.07C1009.94 784.959 1016.31 782.419 1016.31 782.419C1016.31 782.419 1034.64 780.489 1052.34 758.34C1055.63 751.375 1047.73 747.069 1047.73 747.069Z" fill="#282828"/>
<path d="M1053.43 745.192C1053.43 745.192 1077.11 714.894 1085.25 711.476C1093.39 708.058 1104.53 719.967 1105.45 736.568C1106.37 753.17 1099.74 754.915 1099.74 754.915C1099.74 754.915 1083.85 764.268 1056.44 756.987C1049.65 753.346 1053.43 745.192 1053.43 745.192Z" fill="#282828"/>
<g style="mix-blend-mode:soft-light" opacity="0.3">
<path d="M1052.33 758.343C1034.65 780.49 1016.3 782.416 1016.3 782.416C1016.3 782.416 1009.94 784.961 1000.78 771.077C991.641 757.186 993.507 740.974 1002.09 738.889C1003.04 738.686 1004.02 738.592 1005 738.607C1003.5 741.549 1002.61 744.762 1002.39 748.055C1001.78 758.24 1017.11 770.383 1041.52 761.457C1040.09 754.873 1042.77 748.918 1044.32 746.155C1046.45 746.737 1047.74 747.079 1047.74 747.079C1047.74 747.079 1055.63 751.375 1052.33 758.343Z" fill="black"/>
</g>
<g style="mix-blend-mode:soft-light" opacity="0.3">
<path d="M1105.41 742.919C1104.58 753.652 1099.74 754.909 1099.74 754.909C1099.74 754.909 1083.86 764.269 1056.44 756.988C1049.65 753.346 1053.43 745.201 1053.43 745.201C1053.43 745.201 1077.1 714.903 1085.24 711.476C1085.84 711.226 1086.47 711.057 1087.11 710.975C1078.68 719.409 1064.42 734.771 1063.25 743.045C1061.95 752.084 1091.49 746.179 1105.41 742.919Z" fill="black"/>
</g>
<path d="M1059.96 751.571C1060.67 753.69 1061.11 755.894 1061.26 758.127C1061.27 758.282 1061.3 758.431 1061.3 758.587C1061.48 762.967 1060.27 766.388 1057.89 767.376C1057.81 767.422 1057.72 767.458 1057.63 767.484C1053.87 768.724 1048.78 763.618 1046.29 756.077C1043.8 748.535 1044.85 741.404 1048.61 740.164C1052.39 738.917 1057.47 744.029 1059.96 751.571Z" fill="#282828"/>
<g style="mix-blend-mode:soft-light" opacity="0.3">
<path d="M1061.26 758.127C1061.27 758.283 1061.3 758.432 1061.3 758.588C1061.48 762.967 1060.27 766.389 1057.89 767.376C1054.44 768.198 1049.77 763.087 1047.34 755.728C1045.33 749.63 1045.48 743.857 1047.42 741.277C1047.62 743.503 1048.07 745.697 1048.79 747.813C1051.28 755.355 1056.11 760.548 1059.57 759.408C1060.25 759.173 1060.85 758.724 1061.26 758.127Z" fill="black"/>
</g>
<g style="mix-blend-mode:soft-light" opacity="0.5">
<path d="M989.685 908.53C981.773 915.731 973.468 922.487 964.807 928.768C955.14 935.653 944.918 941.553 938.628 941.15C923.871 940.227 912.889 930.259 904.137 900.624C901.693 867.055 945.305 740.753 945.305 740.753C951.964 769.849 962.132 799.375 972.063 824.575C972.063 824.575 950.781 803.708 946.939 795.741C928.614 870.475 922.024 887.175 922.024 887.175L944.826 880.159C944.209 880.559 934.537 887.081 932.799 901.877C932.042 908.425 943.321 906.717 956.458 902.633C965.931 899.693 976.377 895.512 983.959 892.297C986.247 897.567 988.16 902.992 989.685 908.53ZM1244.47 862.36C1242.4 865.709 1239.08 868.706 1234.24 871.293C1223.4 877.102 1202.74 876.733 1184.84 874.924C1169.77 873.389 1156.62 870.827 1152.98 870.07C1152.32 869.934 1151.96 869.854 1151.96 869.854C1151.96 869.854 1149.39 874.977 1145.41 877.901C1138.86 862.38 1127.86 835.744 1127.87 835.467C1127.88 835.318 1135.96 833.299 1144.61 831.177C1148.19 834.924 1150.17 836.442 1151.4 836.88C1151.88 837.051 1153.28 836.856 1155.18 836.426C1161.83 834.943 1174.52 830.776 1174.52 830.776L1154.7 805.379C1152.13 755.522 1143.71 712.033 1140.61 697.389C1144.84 715.501 1161.57 776.875 1202.73 820.299C1221 817.209 1228.16 819.189 1228.16 819.189C1228.16 819.189 1195.36 823.674 1178.68 838.927C1175.63 841.604 1173.15 844.858 1171.37 848.502C1168 855.747 1174.38 860.407 1185.21 862.996C1201.06 866.766 1226.43 866.059 1244.47 862.36Z" fill="black"/>
</g>
<g style="mix-blend-mode:soft-light" opacity="0.3">
<path d="M1127.18 885.502C1126.23 885.247 1125.64 885.05 1125.64 885.05L1122.48 865.809C1122.48 865.809 1107.84 883.674 1099.98 884.591C1092.09 885.486 1102.84 866.532 1111.67 853.948C1083.98 869.981 1077.31 867.082 1082.16 858.726C1087.04 850.371 1106.6 835.862 1106.6 835.862C1106.6 835.862 1084.33 845.851 1071.99 844.371C1059.64 842.891 1085.03 826.971 1102.41 821.769C1101.05 821.987 1099.74 822.186 1098.47 822.387C1097.86 822.467 1097.3 822.55 1096.72 822.61C1096.08 822.71 1095.41 822.809 1094.77 822.888C1094.12 822.966 1093.52 823.047 1092.9 823.105C1092.38 823.168 1091.84 823.23 1091.33 823.293C1090.7 823.351 1090.08 823.431 1089.46 823.489C1089.01 823.533 1088.58 823.557 1088.15 823.602C1087.53 823.661 1086.93 823.699 1086.33 823.758C1085.96 823.785 1085.62 823.791 1085.25 823.818C1083.11 823.959 1081.14 824.023 1079.34 824.008C1079.11 824.019 1078.85 824.029 1078.62 824.019C1078.12 824.019 1077.68 823.999 1077.23 823.98C1076.93 823.988 1076.65 823.976 1076.37 823.964C1075.95 823.945 1075.54 823.927 1075.16 823.889C1074.86 823.876 1074.58 823.843 1074.3 823.831C1073.96 823.794 1073.6 823.779 1073.26 823.721C1072.98 823.709 1072.71 823.675 1072.45 823.643C1072.13 823.586 1071.84 823.552 1071.56 823.518C1071.24 823.462 1070.97 823.407 1070.69 823.352C1070.48 823.322 1070.24 823.29 1070.03 823.238C1069.55 823.131 1069.12 823.027 1068.7 822.923C1068.58 822.872 1068.45 822.831 1068.32 822.8C1068.05 822.702 1067.77 822.626 1067.5 822.529C1067.37 822.481 1067.27 822.433 1067.14 822.385C1066.91 822.289 1066.68 822.194 1066.47 822.099C1066.36 822.052 1066.28 822.005 1066.2 821.959C1065.97 821.842 1065.76 821.726 1065.57 821.611C1065.52 821.569 1065.46 821.53 1065.4 821.497C1065.19 821.356 1064.99 821.197 1064.81 821.022L1064.78 821.021C1062.56 819.001 1064.04 816.459 1067.25 815.018C1067.25 815.018 1098.98 806.683 1107.19 805.781C1109.57 805.432 1111.99 805.737 1114.21 806.664L1127.18 885.502Z" fill="black"/>
</g>
<path d="M1152.98 870.069C1152.32 869.934 1151.96 869.854 1151.96 869.854C1151.96 869.854 1147.84 878.028 1142.02 879.654C1136.19 881.28 1125.95 877.99 1125.95 877.99L1122.79 858.749C1122.79 858.749 1108.15 876.614 1100.29 877.531C1092.4 878.425 1103.15 859.472 1111.98 846.887C1084.29 862.921 1077.62 860.022 1082.47 851.666C1087.35 843.311 1106.91 828.802 1106.91 828.802C1106.91 828.802 1084.64 838.79 1072.3 837.311C1059.94 835.83 1085.34 819.91 1102.72 814.708C1062.16 821.397 1059.77 811.463 1067.56 807.958C1067.56 807.958 1099.29 799.622 1107.5 798.721C1115.69 797.818 1119.91 801.977 1132.11 816.827C1144.33 831.678 1149.19 836.078 1151.4 836.88C1151.88 837.05 1153.28 836.855 1155.18 836.425C1155.18 836.425 1161.99 851.894 1152.98 870.069Z" fill="#E89C69"/>
<g style="mix-blend-mode:soft-light" opacity="0.3">
<path d="M1152.98 870.069C1152.32 869.933 1151.96 869.854 1151.96 869.854C1151.96 869.854 1147.84 878.028 1142.02 879.654C1136.19 881.28 1125.95 877.99 1125.95 877.99L1122.79 858.749C1122.79 858.749 1108.15 876.614 1100.29 877.531C1092.4 878.425 1103.15 859.472 1111.98 846.887C1084.29 862.921 1077.62 860.022 1082.47 851.666C1087.35 843.311 1106.91 828.802 1106.91 828.802C1106.91 828.802 1084.64 838.79 1072.3 837.311C1059.94 835.83 1085.34 819.91 1102.71 814.708C1078.89 818.645 1068.24 816.833 1065.09 813.961C1069.15 814.16 1074.23 813.911 1080.62 813.015C1114.01 808.343 1112.73 821.321 1123.96 835.979C1135.16 850.657 1155.18 836.425 1155.18 836.425C1155.18 836.425 1161.99 851.894 1152.98 870.069Z" fill="black"/>
</g>
<path d="M1071.16 672.644C1078.42 673.553 1081.17 671.59 1081.84 668.933C1082.86 665.018 1079.4 659.577 1079.4 659.577C1091.2 654.552 1110.7 627.534 1097.64 618.858C1091.39 614.704 1084.39 618.144 1078.79 622.87C1074.8 626.351 1071.26 630.314 1068.25 634.668L1059.17 642.149C1059.17 642.149 1053.18 670.425 1071.16 672.644Z" fill="#E89C69"/>
<path d="M1067.17 659.895C1067.36 656.439 1068.07 653.032 1069.29 649.79C1070.44 646.498 1072.02 643.373 1073.99 640.496C1076.05 637.661 1078.38 634.9 1081.43 632.947C1084.4 630.965 1087.96 629.707 1091.44 629.86C1088.48 631.275 1085.76 633.144 1083.39 635.4C1082.84 635.986 1082.29 636.554 1081.71 637.092L1080.18 638.928C1079.14 640.153 1078.18 641.439 1077.3 642.778C1075.42 645.393 1073.79 648.231 1072.13 651.089L1067.17 659.895Z" fill="#B25734"/>
<g style="mix-blend-mode:soft-light" opacity="0.45">
<path d="M1071.16 672.645C1078.42 673.554 1081.17 671.591 1081.84 668.934C1075.34 670.817 1070.55 661.84 1076.62 654.951C1083.11 647.579 1088 634.866 1090.2 636.441C1092.32 637.97 1082.18 652.423 1081.42 653.51C1082.51 652.403 1103.26 631.14 1093.46 629.419C1083.4 627.648 1071.02 646.241 1071.21 640.504C1071.34 636.358 1076.12 627.496 1078.79 622.871C1074.8 626.352 1071.26 630.315 1068.25 634.669L1059.17 642.15C1059.17 642.15 1053.18 670.426 1071.16 672.645Z" fill="black"/>
</g>
<path d="M1080.01 626.318L1068.73 658.239L1062.51 663.245L1042.45 661.869L984.402 635.926L913.42 609.726C913.42 609.726 887.549 592.852 884.341 566.417C882.954 554.963 885.817 541.729 896.892 527.272C896.882 527.289 896.878 527.31 896.882 527.33C896.881 528.459 896.853 548.342 905.509 554.52C905.649 554.64 905.798 554.75 905.954 554.848C905.954 554.848 905.607 554.166 905.071 552.967C902.748 547.483 897.044 531.067 906.128 518.148L912.42 529.549L910.509 507.265C910.509 507.265 930.553 499.692 963.256 513.16C963.256 513.16 951.07 504.762 932.627 501.866C984.85 487.075 1028.96 484.251 1044.33 523.769C1066.59 518.819 1083.26 535.953 1083.26 535.953C1098.31 577.289 1080.01 626.318 1080.01 626.318Z" fill="#231C2D"/>
<path d="M932.826 694.898C925.816 696.931 922.777 695.424 921.663 692.908C920 689.204 922.5 683.294 922.5 683.294C910.017 680.182 886.239 656.573 897.667 645.969C903.137 640.891 910.622 643.189 916.937 646.977C921.461 649.788 925.622 653.143 929.327 656.968L939.537 662.93C939.537 662.93 950.192 689.894 932.826 694.898Z" fill="#E89C69"/>
<path d="M934.626 681.692L928.247 673.787C926.13 671.229 924.05 668.683 921.75 666.399C920.656 665.215 919.494 664.097 918.269 663.049L916.446 661.476C915.789 661.035 915.149 660.56 914.51 660.067C911.789 658.21 908.794 656.789 905.634 655.853C909.065 655.156 912.784 655.846 916.05 657.334C919.386 658.78 922.138 661.137 924.641 663.607C927.066 666.135 929.15 668.969 930.838 672.037C932.579 675.047 933.856 678.302 934.626 681.692Z" fill="#B25734"/>
<g style="mix-blend-mode:soft-light" opacity="0.45">
<path d="M932.826 694.899C925.816 696.933 922.777 695.425 921.663 692.909C928.4 693.749 931.611 684.142 924.467 678.294C916.832 672.035 909.869 660.255 907.963 662.154C906.124 663.995 918.555 676.67 919.486 677.624C918.225 676.702 894.181 658.968 903.567 655.735C913.199 652.413 928.536 668.822 927.386 663.19C926.557 659.12 920.348 651.124 916.938 646.979C921.461 649.789 925.623 653.144 929.327 656.969L939.537 662.931C939.537 662.931 950.193 689.895 932.826 694.899Z" fill="black"/>
</g>
<path d="M931.531 601.576L930.589 672.566C930.589 672.566 910.198 656.121 902.967 642.772C901.469 640.017 900.548 637.394 900.468 635.081C900.287 629.849 901.285 624.108 902.58 619.049C903.839 614.129 905.459 609.309 907.427 604.628L931.531 601.576Z" fill="#231C2D"/>
<path d="M911.478 631.799C911.411 637.329 907.483 640.718 902.967 642.77C901.469 640.015 900.548 637.392 900.468 635.08C900.287 629.848 901.285 624.106 902.58 619.047C906.527 620.464 911.56 623.84 911.478 631.799Z" fill="#322A3F"/>
<path d="M1069.04 635.061L1059.47 660.897L1068.73 658.239C1059.12 707.797 1013.94 734.949 1001.68 741.495C999.744 742.538 997.595 743.134 995.395 743.24C987.771 743.604 979.944 743.622 974.742 743.569C970.616 743.499 966.678 741.833 963.754 738.923C958.697 733.967 953.989 728.666 949.664 723.06C937.596 707.63 929.493 695.821 925.827 690.293C924.347 688.068 923.603 686.862 923.603 686.862L926.178 668.913L927.739 658.054L911.744 613.004L911.616 612.779L907.426 604.62C990.619 594.697 1034.45 548.769 1036.01 547.108C1036.03 547.086 1036.05 547.084 1036.06 547.062C1037.11 547.625 1038.12 548.253 1039.09 548.944L1039.13 548.975C1039.45 549.21 1039.75 549.429 1040.05 549.667C1042.14 551.306 1043.99 553.234 1045.55 555.392C1045.83 555.764 1046.09 556.157 1046.34 556.535C1046.59 556.882 1046.82 557.243 1047.03 557.617C1047.37 558.149 1047.68 558.705 1047.96 559.227L1047.97 559.282C1049.84 562.728 1051.13 566.455 1051.8 570.316C1050.01 599.828 1055.37 613.436 1061.12 619.689L1061.16 619.721C1066.66 625.673 1072.51 624.877 1072.8 624.833L1072.82 624.831L1069.04 635.061Z" fill="#E89C69"/>
<g style="mix-blend-mode:soft-light" opacity="0.45">
<path d="M939.08 708.579C939.209 708.837 939.353 709.087 939.512 709.328C939.342 709.034 939.193 708.78 939.08 708.579ZM1069.04 635.061L1059.47 660.897L1068.73 658.239C1059.12 707.797 1013.94 734.949 1001.68 741.495C999.744 742.538 997.595 743.134 995.395 743.24C987.771 743.604 979.944 743.622 974.742 743.569C970.616 743.499 966.678 741.833 963.754 738.923C958.697 733.967 953.989 728.666 949.664 723.06C945.909 717.873 942.447 712.48 939.295 706.906C945.987 718.342 965.693 737.788 965.693 737.788C970.69 732.681 990.566 736.097 990.566 736.097C1046.38 697.432 1053.04 621.927 1011.26 584.815C1008.77 582.585 1006.09 580.574 1003.25 578.805C969.08 600.443 927.178 609.86 911.616 612.779L907.426 604.62C990.619 594.697 1034.45 548.769 1036.01 547.108C1036.03 547.086 1036.05 547.084 1036.06 547.062C1037.11 547.625 1038.12 548.253 1039.09 548.944L1039.13 548.975C1039.45 549.21 1039.75 549.429 1040.05 549.667C1042.14 551.306 1043.99 553.234 1045.55 555.392C1045.83 555.764 1046.09 556.157 1046.34 556.535C1046.59 556.882 1046.82 557.243 1047.03 557.617C1047.37 558.149 1047.68 558.705 1047.96 559.227L1047.97 559.282C1049.84 562.728 1051.13 566.455 1051.8 570.316C1050.01 599.828 1055.37 613.436 1061.12 619.689L1061.16 619.721C1066.66 625.673 1072.51 624.877 1072.8 624.833L1072.82 624.831L1069.04 635.061Z" fill="black"/>
</g>
<g style="mix-blend-mode:soft-light" opacity="0.45">
<path d="M941.155 667.254C944.984 666.535 946.86 659.416 945.346 651.352C943.831 643.288 939.5 637.333 935.67 638.051C931.841 638.769 929.965 645.889 931.479 653.953C932.994 662.017 937.326 667.972 941.155 667.254Z" fill="black"/>
</g>
<path d="M940.832 665.526C943.549 665.017 944.932 660.237 943.921 654.848C942.91 649.46 939.888 645.505 937.171 646.014C934.454 646.523 933.07 651.304 934.081 656.692C935.092 662.08 938.115 666.035 940.832 665.526Z" fill="#231C2D"/>
<path d="M938.172 651.097C938.49 652.779 938.018 654.283 937.119 654.455C936.22 654.628 935.233 653.405 934.915 651.722C934.598 650.04 935.069 648.537 935.969 648.364C936.868 648.191 937.855 649.415 938.172 651.097Z" fill="white"/>
<path d="M939.708 656.635C940.264 656.567 940.612 655.671 940.485 654.632C940.358 653.594 939.805 652.808 939.249 652.875C938.694 652.943 938.346 653.84 938.473 654.878C938.6 655.916 939.153 656.703 939.708 656.635Z" fill="white"/>
<g style="mix-blend-mode:soft-light" opacity="0.45">
<path d="M989.315 666.207C994.653 665.412 997.621 655.654 995.945 644.412C994.268 633.17 988.583 624.7 983.245 625.495C977.908 626.289 974.94 636.047 976.616 647.29C978.292 658.532 983.978 667.001 989.315 666.207Z" fill="black"/>
</g>
<path d="M988.956 663.797C992.743 663.233 994.905 656.686 993.785 649.174C992.665 641.663 988.687 636.03 984.9 636.594C981.113 637.158 978.95 643.705 980.07 651.216C981.19 658.728 985.168 664.361 988.956 663.797Z" fill="#231C2D"/>
<path d="M986.03 643.684C986.379 646.03 985.646 648.083 984.391 648.269C983.136 648.456 981.836 646.706 981.486 644.361C981.136 642.015 981.87 639.962 983.125 639.775C984.379 639.589 985.68 641.339 986.03 643.684ZM989.043 648.716C989.162 650.159 988.631 651.378 987.858 651.436C987.085 651.495 986.363 650.373 986.244 648.929C986.125 647.485 986.656 646.267 987.429 646.208C988.202 646.149 988.925 647.272 989.043 648.716Z" fill="white"/>
<path d="M948.966 623.422C948.716 623.448 948.467 623.488 948.221 623.54C947.84 623.589 947.451 623.653 947.058 623.744C946.066 623.942 945.086 624.2 944.124 624.515C943.63 624.664 943.128 624.828 942.619 625.007C941.153 625.549 939.704 626.186 938.295 626.872C929.66 631.14 922.746 637.645 922.746 637.645C917.295 632.481 926.55 626.039 926.55 626.039C923.973 627.221 921.066 631.387 920.883 631.647C922.687 627.528 925.386 623.861 928.783 620.913C930.417 619.511 932.237 618.341 934.191 617.437C935.108 617.015 936.057 616.667 937.029 616.396C937.316 616.311 937.609 616.244 937.905 616.198L940.584 617.922L938.866 615.658C939.753 615.751 940.617 616 941.417 616.394C941.428 616.39 941.432 616.401 941.446 616.409C943.336 617.409 944.953 618.856 946.155 620.623C943.869 616.233 940.882 614.873 940.882 614.873C941.261 614.911 941.635 614.987 941.999 615.098C946.705 616.536 948.966 623.422 948.966 623.422Z" fill="#231C2D"/>
<path d="M942.619 625.008C941.153 625.55 939.704 626.187 938.295 626.874C934.991 622.766 931.373 621.349 928.784 620.914C930.417 619.512 932.237 618.343 934.191 617.438C939.545 619.368 941.795 623.104 942.619 625.008ZM947.059 623.745C946.066 623.943 945.086 624.201 944.125 624.516C941.896 619.617 939.132 617.393 937.029 616.398C937.316 616.312 937.609 616.246 937.905 616.199L940.585 617.923L938.866 615.659C939.753 615.752 940.617 616.002 941.418 616.395C941.428 616.391 941.432 616.403 941.446 616.411C944.02 618.228 945.978 620.787 947.059 623.745ZM948.966 623.423C948.716 623.45 948.468 623.489 948.222 623.541C946.311 618.852 943.803 616.369 941.999 615.1C946.706 616.538 948.966 623.423 948.966 623.423Z" fill="#322A3F"/>
<path d="M969.68 615.486C969.979 615.437 970.279 615.403 970.581 615.384C971.039 615.319 971.51 615.269 971.994 615.248C973.208 615.159 974.426 615.143 975.642 615.2C976.263 615.214 976.897 615.243 977.545 615.287C979.419 615.444 981.303 615.718 983.157 616.061C994.54 618.235 1004.65 623.552 1004.65 623.552C1009.3 615.823 996.492 611.329 996.492 611.329C999.859 611.871 1004.57 615.764 1004.87 616.008C1000.58 610.928 996.141 607.895 992.245 606.108C989.9 605.008 987.413 604.237 984.857 603.816C983.659 603.622 982.447 603.523 981.234 603.521C980.873 603.514 980.513 603.531 980.155 603.572L977.609 606.428L978.866 603.254C977.869 603.647 976.949 604.213 976.149 604.925C976.136 604.925 976.135 604.939 976.121 604.953C973.41 607.327 972.213 610.806 972.031 611.343C973.258 605.525 976.277 602.992 976.277 602.992C975.851 603.158 975.442 603.365 975.057 603.611C970.07 606.787 969.68 615.486 969.68 615.486Z" fill="#231C2D"/>
<path d="M977.545 615.286C979.419 615.444 981.303 615.717 983.157 616.061C985.655 610.244 989.387 607.441 992.245 606.107C989.9 605.008 987.413 604.236 984.857 603.816C979.28 607.768 977.883 612.817 977.545 615.286ZM971.994 615.247C973.208 615.159 974.426 615.143 975.642 615.199C976.638 608.811 979.12 605.348 981.234 603.52C980.873 603.513 980.513 603.53 980.155 603.572L977.609 606.428L978.866 603.254C977.869 603.647 976.949 604.212 976.149 604.925C976.136 604.924 976.135 604.938 976.121 604.952C973.728 607.884 972.288 611.476 971.994 615.247ZM969.68 615.486C969.979 615.437 970.279 615.403 970.581 615.384C971.277 609.34 973.378 605.659 975.057 603.611C970.07 606.786 969.68 615.486 969.68 615.486Z" fill="#322A3F"/>
<path d="M982.675 714.551C981.285 716.459 979.268 717.75 977.19 718.713C975.094 719.667 972.862 720.292 970.574 720.563C968.306 720.839 966.01 720.79 963.756 720.42C961.489 720.091 959.298 719.362 957.285 718.269C959.451 717.821 961.64 717.497 963.843 717.299L970.091 716.592C974.233 716.084 978.2 715.504 982.675 714.551Z" fill="#B25734"/>
<path d="M1044.45 545.542C1044.45 545.542 1060.52 562.216 1062.94 574.93C1062.94 574.93 1067.68 561.15 1057.55 545.771C1057.55 545.771 1067.63 550.263 1071.15 563.358C1071.15 563.358 1079.56 556.658 1082.8 539.832C1082.8 539.832 1064.01 522.474 1045.51 533.399C1045.51 533.399 1061.87 530.963 1070.41 544.4C1070.41 544.4 1057.41 534.35 1044.45 545.542Z" fill="#322A3F"/>
<path d="M939.617 682.427C939.743 686.809 933.273 689.108 925.827 690.292C924.347 688.067 923.603 686.861 923.603 686.861L926.178 668.912C931.438 671.119 939.425 675.591 939.617 682.427Z" fill="#F7B284"/>
<path d="M1036.62 540.847L1003.41 525.48C1004.11 526.128 1015.39 536.768 1018.41 557.062C1018.41 557.062 980.386 530.977 926.689 520.484C927.419 521.466 951.161 552.838 1007.09 564.559C1007.09 564.559 968.676 566.047 941.34 546.044C941.34 546.044 951.708 564.078 994.953 573.776C994.953 573.776 942.879 591.836 910.651 547.98C910.651 547.98 915.523 582.424 943.562 594.649C943.562 594.649 895.151 605.468 884.341 566.416C882.954 554.962 885.817 541.728 896.892 527.272C896.882 527.289 896.878 527.31 896.882 527.33C896.152 528.999 881.404 564.766 917.126 582.449C912.209 573.608 908.311 564.238 905.509 554.519C905.359 554.015 905.224 553.49 905.071 552.967C902.037 541.326 900.927 528.326 906.128 518.148C906.128 518.148 909.212 559.535 963.456 568.648C962.068 568.178 915.817 552.082 912.232 508.851C912.232 508.851 961.143 508.452 996.91 530.096C996.91 530.096 988.601 508.069 946.927 501.842C946.927 501.842 1017.99 481.483 1041.92 533.72C1041.92 533.72 1020.62 511.502 988.266 507.592C988.266 507.592 1023.32 519.036 1036.62 540.847Z" fill="#322A3F"/>
<path d="M1011.45 681.418C1004.88 696.503 986.742 712.086 964.896 711.107C943.032 710.13 941.082 695.789 941.082 695.789C941.082 695.789 941.645 695.78 942.643 695.782C949.232 695.666 974.841 695.126 982.594 692.598C988.643 690.626 999.744 686.189 1006.27 683.543C1009.38 682.272 1011.45 681.418 1011.45 681.418Z" fill="#121116"/>
<path d="M1006.27 683.543C997.748 695.777 982.179 706.352 964.065 705.532C951.428 704.968 945.445 699.935 942.643 695.782C949.232 695.666 974.841 695.125 982.594 692.598C988.643 690.626 999.744 686.189 1006.27 683.543Z" fill="white"/>
<path d="M1017.86 670.412C1017.22 673.41 1016.52 676.388 1015.73 679.331L1015.66 679.604L1015.3 679.861C1009.77 683.78 1003.84 687.09 997.598 689.735C991.363 692.413 984.891 694.502 978.266 695.977C971.629 697.491 964.843 698.253 958.035 698.249L952.942 698.141C951.247 697.995 949.559 697.763 947.877 697.578L945.36 697.279L942.873 696.732C941.218 696.376 939.574 696.001 937.946 695.595L937.788 695.555L937.735 695.513C936.59 694.598 935.485 693.621 934.363 692.67C935.693 693.298 937.039 693.902 938.345 694.567L938.135 694.485C944.803 694.649 951.337 694.804 957.845 694.055C964.335 693.456 970.775 692.404 977.118 690.906C983.482 689.431 989.763 687.617 995.933 685.47C1002.1 683.301 1008.26 680.868 1014.19 678.089L1013.76 678.618C1015.05 675.852 1016.42 673.122 1017.86 670.412Z" fill="#B25734"/>
<path d="M1019.82 673.032C1017.76 672.847 1016.95 672.902 1016.15 672.749C1015.69 672.644 1015.23 672.492 1014.8 672.296C1014.06 672.02 1013.34 671.695 1012.64 671.325C1012.75 670.874 1012.97 670.452 1013.26 670.087C1013.55 669.723 1013.91 669.424 1014.33 669.209C1015.15 668.769 1016.11 668.64 1017.02 668.845C1017.94 669.049 1018.74 669.575 1019.3 670.325C1019.6 670.702 1019.8 671.145 1019.89 671.616C1019.98 672.087 1019.95 672.572 1019.82 673.032Z" fill="#B25734"/>
<path d="M1036.35 691.264C1035.74 699.171 1027.42 708.751 1002.89 712.799C980.487 716.476 969.33 708.518 963.619 700.577C960.294 709.538 952.455 718.956 934.894 719.103C906.375 719.306 910.001 698.106 915.038 698.382C920.024 698.662 917.341 703.362 917.133 703.695C917.22 703.4 917.937 700.581 915.258 700.74C912.475 700.9 912.71 705.478 913.83 708.125C914.954 710.784 921.639 713.64 932.943 701.39C945.195 688.112 951.17 686.085 951.17 686.085C953.094 686.889 955.394 687.045 957.614 686.924C959.021 686.842 960.421 686.662 961.804 686.388C963.168 686.176 964.515 685.867 965.835 685.462C968.091 684.838 970.209 683.797 972.08 682.392C972.22 682.27 972.29 682.21 972.29 682.21C972.29 682.21 979.545 681.904 999.4 691.613C1006.98 695.316 1013.26 696.988 1018.25 697.406C1027.55 698.209 1032.18 694.712 1032.8 692.131C1032.99 691.27 1033.06 690.39 1033.02 689.51C1032.97 686.344 1031.53 683.056 1028.35 682.977C1027.91 682.986 1027.47 683.037 1027.03 683.129C1022.29 684.228 1024.69 687.486 1024.94 687.829C1024.44 687.496 1017.99 682.817 1026.43 679.975C1026.7 679.885 1026.97 679.822 1027.25 679.785C1031.51 679.191 1036.87 684.372 1036.35 691.264Z" fill="#231C2D"/>
<path d="M1013.15 702.028C999.973 707.809 972.894 704.061 969.26 695.718C966.055 688.359 970.967 683.383 972.08 682.392C972.22 682.271 972.29 682.21 972.29 682.21C972.29 682.21 979.545 681.904 999.399 691.614C1006.98 695.317 1013.26 696.988 1018.25 697.406C1004.7 702.067 977.732 696.269 977.732 696.269C990.666 705.097 1013.15 702.028 1013.15 702.028ZM958.32 694.34C958.32 694.34 952.368 708.903 927.212 713.015C927.212 713.015 937.337 715.05 948.1 707.96C948.1 707.96 946.028 712.307 938.688 714.111C938.688 714.111 963.152 716.427 958.32 694.34ZM954.181 693.291C954.181 693.291 936.649 703.354 930.072 710.347C930.072 710.347 939.275 692.848 954.181 693.291Z" fill="#322A3F"/>
<path d="M953.43 666.01C953.43 666.01 972.462 664.595 973.617 672.34C974.771 680.085 956.644 685.863 946.572 681.997C936.5 678.13 953.43 666.01 953.43 666.01Z" fill="#F7B284"/>
<path d="M955.719 657.588C955.534 660.552 955.107 663.451 954.69 666.352L954.647 666.647L954.226 667.045C952.493 668.679 950.769 670.325 948.978 671.884L947.648 673.069C947.327 673.351 947.038 673.667 946.788 674.013C946.348 674.64 946.1 675.381 946.074 676.146C946.026 676.88 946.174 677.613 946.501 678.271C946.829 678.929 947.325 679.488 947.939 679.893C949.771 681.024 951.716 681.959 953.744 682.684C955.764 683.366 957.863 683.785 959.991 683.93C962.162 684.02 964.336 683.858 966.47 683.449C970.815 682.541 975.083 680.625 979.319 678.319C976.182 682.161 972.114 685.137 967.5 686.963C962.6 688.82 957.218 688.981 952.216 687.42C949.733 686.669 947.374 685.554 945.219 684.11C943.842 683.203 942.753 681.92 942.082 680.415C941.41 678.909 941.184 677.242 941.43 675.612C941.656 674.007 942.338 672.5 943.396 671.27C943.899 670.699 944.48 670.201 945.121 669.788L946.608 668.806C948.575 667.476 950.608 666.231 952.633 664.976L952.169 665.668C953.278 662.954 954.377 660.238 955.719 657.588Z" fill="#B25734"/>
<line x1="142.704" y1="833.937" x2="473.978" y2="923.563" stroke="#666666"/>
<line x1="153.952" y1="901.989" x2="472.746" y2="923.545" stroke="#666666"/>
<line x1="227.751" y1="878.172" x2="473.937" y2="923.552" stroke="#666666"/>
<line x1="214.229" y1="821.474" x2="474.03" y2="923.579" stroke="#666666"/>
<line x1="324.295" y1="853.248" x2="472.915" y2="919.049" stroke="#666666"/>
<line x1="379.972" y1="853.297" x2="473.001" y2="919.098" stroke="#666666"/>
<line x1="352.795" y1="807.957" x2="473.052" y2="919.138" stroke="#666666"/>
<line x1="405.063" y1="811.458" x2="474.268" y2="919.236" stroke="#666666"/>
<path d="M450.582 778.734L474.407 919.412" stroke="#666666"/>
<path d="M532.841 802.652L494.268 916.102" stroke="#666666"/>
<path d="M566.876 824.209L494.268 916.103" stroke="#666666"/>
<path d="M570.279 778.828L494.268 916.103" stroke="#666666"/>
<path d="M611.122 806.057L494.268 916.103" stroke="#666666"/>
<path d="M651.963 790.174L494.268 916.103" stroke="#666666"/>
<path d="M611.122 852.57L494.268 916.102" stroke="#666666"/>
<path d="M611.122 760.676L494.268 916.102" stroke="#666666"/>
<path d="M588.431 724.373L494.268 916.103" stroke="#666666"/>
<line x1="364.208" y1="763.791" x2="474.255" y2="919.218" stroke="#666666"/>
<line x1="299.467" y1="763.707" x2="474.179" y2="919.133" stroke="#666666"/>
<line x1="405.114" y1="721.938" x2="474.319" y2="919.341" stroke="#666666"/>
<line x1="200.437" y1="921.275" x2="472.717" y2="923.544" stroke="#666666"/>
<line x1="261.688" y1="926.947" x2="472.705" y2="923.544" stroke="#666666"/>
<line x1="125.512" y1="954.178" x2="472.668" y2="923.546" stroke="#666666"/>
<line x1="383.977" y1="983.736" x2="477.006" y2="931.549" stroke="#666666"/>
<line x1="323.876" y1="1005.28" x2="477.033" y2="931.536" stroke="#666666"/>
<line x1="362.331" y1="1034.85" x2="476.916" y2="931.614" stroke="#666666"/>
<line x1="409.865" y1="1070.18" x2="476.8" y2="931.768" stroke="#666666"/>
<line x1="423.447" y1="1148.54" x2="482.441" y2="935.255" stroke="#666666"/>
<line x1="375.818" y1="1190.46" x2="482.461" y2="935.195" stroke="#666666"/>
<line x1="406.427" y1="1231.37" x2="482.439" y2="935.266" stroke="#666666"/>
<line x1="345.189" y1="1253.99" x2="482.464" y2="935.192" stroke="#666666"/>
<line x1="450.659" y1="1260.94" x2="482.425" y2="935.34" stroke="#666666"/>
<line x1="566.4" y1="1161.31" x2="492.658" y2="933.274" stroke="#666666"/>
<line x1="677.668" y1="1161.47" x2="492.745" y2="933.435" stroke="#666666"/>
<line x1="728.755" y1="1169.45" x2="492.78" y2="933.473" stroke="#666666"/>
<line x1="702.613" y1="1219.31" x2="492.73" y2="933.416" stroke="#666666"/>
<line x1="642.444" y1="1219.25" x2="492.69" y2="933.352" stroke="#666666"/>
<line x1="589.121" y1="1121.68" x2="492.688" y2="933.348" stroke="#666666"/>
<line x1="557.391" y1="1025.3" x2="492.724" y2="933.409" stroke="#666666"/>
<line x1="611.901" y1="1053.73" x2="492.778" y2="933.472" stroke="#666666"/>
<line x1="584.83" y1="973.287" x2="492.935" y2="933.58" stroke="#666666"/>
<line x1="624.494" y1="1006.17" x2="492.892" y2="933.558" stroke="#666666"/>
<line x1="675.538" y1="1039.06" x2="492.883" y2="933.553" stroke="#666666"/>
<line x1="647.064" y1="1094.56" x2="492.772" y2="933.466" stroke="#666666"/>
<line x1="639.399" y1="958.571" x2="493.049" y2="933.612" stroke="#666666"/>
<line x1="738.108" y1="961.976" x2="497.594" y2="924.538" stroke="#666666"/>
<line x1="790.284" y1="976.723" x2="497.584" y2="924.536" stroke="#666666"/>
<line x1="790.37" y1="925.678" x2="497.669" y2="924.543" stroke="#666666"/>
<line x1="751.841" y1="902.986" x2="497.713" y2="924.542" stroke="#666666"/>
<line x1="756.454" y1="862.133" x2="497.788" y2="924.53" stroke="#666666"/>
<line x1="396.214" y1="1297.18" x2="482.436" y2="935.274" stroke="#666666"/>
<line x1="435.916" y1="1190.56" x2="482.431" y2="935.298" stroke="#666666"/>
<line x1="349.802" y1="1084.82" x2="476.866" y2="931.666" stroke="#666666"/>
<line x1="307.917" y1="1054.11" x2="476.957" y2="931.581" stroke="#666666"/>
<line x1="269.337" y1="1087.01" x2="476.95" y2="931.585" stroke="#666666"/>
<line x1="307.844" y1="1113.17" x2="476.884" y2="931.645" stroke="#666666"/>
<line x1="188.065" y1="857.755" x2="472.824" y2="923.556" stroke="#666666"/>
<ellipse cx="356.993" cy="1040.9" rx="13.614" ry="11.345" fill="#DF644A"/>
<ellipse cx="376.28" cy="987.577" rx="13.614" ry="11.345" fill="#DF644A"/>
<ellipse cx="343.38" cy="1090.82" rx="13.614" ry="11.345" fill="#DF644A"/>
<ellipse cx="403.508" cy="1079.47" rx="13.614" ry="11.345" fill="#DF644A"/>
<path d="M316.151 1121.45C316.151 1127.71 310.056 1132.79 302.537 1132.79C295.019 1132.79 288.923 1127.71 288.923 1121.45C288.923 1115.18 295.019 1110.1 302.537 1110.1C310.056 1110.1 316.151 1115.18 316.151 1121.45Z" fill="#DF644A"/>
<ellipse cx="261.695" cy="1090.82" rx="13.614" ry="11.345" fill="#DF644A"/>
<ellipse cx="346.783" cy="806.056" rx="13.614" ry="11.345" fill="#0085B8"/>
<ellipse cx="319.555" cy="846.898" rx="13.614" ry="11.345" fill="#0085B8"/>
<ellipse cx="292.327" cy="757.273" rx="13.614" ry="11.345" fill="#0085B8"/>
<ellipse cx="374.01" cy="846.898" rx="13.614" ry="11.345" fill="#0085B8"/>
<ellipse cx="401.239" cy="806.056" rx="13.614" ry="11.345" fill="#0085B8"/>
<ellipse cx="360.397" cy="757.273" rx="13.614" ry="11.345" fill="#0085B8"/>
<ellipse cx="447.753" cy="772.023" rx="13.614" ry="11.345" fill="#0085B8"/>
<ellipse cx="401.239" cy="716.431" rx="13.614" ry="11.345" fill="#0085B8"/>
<ellipse cx="316.151" cy="1010.27" rx="13.614" ry="11.345" fill="#DF644A"/>
<ellipse cx="615.659" cy="755.003" rx="13.614" ry="11.345" fill="#0B8C20"/>
<ellipse cx="591.834" cy="716.431" rx="13.614" ry="11.345" fill="#0B8C20"/>
<ellipse cx="174.339" cy="853.704" rx="13.614" ry="11.345" fill="#ACAF1C"/>
<ellipse cx="174.339" cy="853.704" rx="13.614" ry="11.345" fill="#ACAF1C"/>
<ellipse cx="207.239" cy="817.402" rx="13.614" ry="11.345" fill="#ACAF1C"/>
<ellipse cx="207.239" cy="817.402" rx="13.614" ry="11.345" fill="#ACAF1C"/>
<ellipse cx="147.111" cy="899.085" rx="13.614" ry="11.345" fill="#ACAF1C"/>
<ellipse cx="147.111" cy="899.085" rx="13.614" ry="11.345" fill="#ACAF1C"/>
<ellipse cx="214.047" cy="874.126" rx="13.614" ry="11.345" fill="#ACAF1C"/>
<ellipse cx="214.047" cy="874.126" rx="13.614" ry="11.345" fill="#ACAF1C"/>
<ellipse cx="193.626" cy="921.775" rx="13.614" ry="11.345" fill="#ACAF1C"/>
<ellipse cx="193.626" cy="921.775" rx="13.614" ry="11.345" fill="#ACAF1C"/>
<ellipse cx="131.228" cy="828.747" rx="13.614" ry="11.345" fill="#ACAF1C"/>
<ellipse cx="131.228" cy="828.747" rx="13.614" ry="11.345" fill="#ACAF1C"/>
<ellipse cx="117.614" cy="954.677" rx="13.614" ry="11.345" fill="#ACAF1C"/>
<ellipse cx="117.614" cy="954.677" rx="13.614" ry="11.345" fill="#ACAF1C"/>
<ellipse cx="248.081" cy="927.447" rx="13.614" ry="11.345" fill="#ACAF1C"/>
<ellipse cx="248.081" cy="927.447" rx="13.614" ry="11.345" fill="#ACAF1C"/>
<ellipse cx="536.244" cy="794.712" rx="13.614" ry="11.345" fill="#0B8C20"/>
<ellipse cx="572.549" cy="772.023" rx="13.614" ry="11.345" fill="#0B8C20"/>
<ellipse cx="572.549" cy="817.402" rx="13.614" ry="11.345" fill="#0B8C20"/>
<ellipse cx="659.905" cy="784.501" rx="13.614" ry="11.345" fill="#0B8C20"/>
<ellipse cx="619.063" cy="798.115" rx="13.614" ry="11.345" fill="#0B8C20"/>
<ellipse cx="620.197" cy="846.898" rx="13.614" ry="11.345" fill="#0B8C20"/>
<ellipse cx="598.641" cy="1127.12" rx="13.614" ry="11.345" fill="#513DCC"/>
<ellipse cx="571.414" cy="1169.1" rx="13.614" ry="11.345" fill="#513DCC"/>
<ellipse cx="420.526" cy="1157.75" rx="13.614" ry="11.345" fill="#920000"/>
<ellipse cx="800.582" cy="927.447" rx="13.614" ry="11.345" fill="#BB3395"/>
<ellipse cx="760.875" cy="904.757" rx="13.614" ry="11.345" fill="#BB3395"/>
<ellipse cx="747.261" cy="964.886" rx="13.614" ry="11.345" fill="#BB3395"/>
<ellipse cx="800.582" cy="980.769" rx="13.614" ry="11.345" fill="#BB3395"/>
<ellipse cx="765.413" cy="859.378" rx="13.614" ry="11.345" fill="#BB3395"/>
<ellipse cx="486.326" cy="924.044" rx="13.614" ry="11.345" fill="#77DBFF"/>
<ellipse cx="594.103" cy="976.232" rx="13.614" ry="11.345" fill="#513DCC"/>
<ellipse cx="566.876" cy="1030.69" rx="13.614" ry="11.345" fill="#513DCC"/>
<ellipse cx="656.501" cy="1097.62" rx="13.614" ry="11.345" fill="#513DCC"/>
<ellipse cx="738.185" cy="1175.9" rx="13.614" ry="11.345" fill="#A87E66"/>
<ellipse cx="647.426" cy="961.482" rx="13.614" ry="11.345" fill="#513DCC"/>
<ellipse cx="634.946" cy="1010.27" rx="13.614" ry="11.345" fill="#513DCC"/>
<ellipse cx="621.332" cy="1061.32" rx="13.614" ry="11.345" fill="#513DCC"/>
<ellipse cx="683.729" cy="1042.03" rx="13.614" ry="11.345" fill="#513DCC"/>
<ellipse cx="301.403" cy="1059.05" rx="13.614" ry="11.345" fill="#DF644A"/>
<ellipse cx="434.139" cy="1198.59" rx="13.614" ry="11.345" fill="#920000"/>
<ellipse cx="374.01" cy="1198.59" rx="13.614" ry="11.345" fill="#920000"/>
<ellipse cx="403.508" cy="1238.3" rx="13.614" ry="11.345" fill="#920000"/>
<ellipse cx="447.753" cy="1268.93" rx="13.614" ry="11.345" fill="#920000"/>
<ellipse cx="343.38" cy="1260.99" rx="13.614" ry="11.345" fill="#920000"/>
<ellipse cx="683.729" cy="1169.1" rx="13.614" ry="11.345" fill="#A87E66"/>
<ellipse cx="710.957" cy="1226.95" rx="13.614" ry="11.345" fill="#A87E66"/>
<ellipse cx="647.426" cy="1226.95" rx="13.614" ry="11.345" fill="#A87E66"/>
<ellipse cx="393.297" cy="1305.24" rx="13.614" ry="11.345" fill="#920000"/>
<g opacity="0.5">
<path d="M1131.1 343.208C1131.1 191.767 1284.2 69 1473.06 69C1661.91 69 1815.01 191.767 1815.01 343.208C1815.01 494.649 1661.91 617.416 1473.06 617.416C1396.16 617.416 1325.19 597.056 1268.06 562.696C1263.35 568.902 1255.9 572.913 1247.5 572.913C1233.25 572.913 1221.7 561.36 1221.7 547.109C1221.7 541.817 1223.29 536.899 1226.03 532.805C1167.23 483.559 1131.1 416.769 1131.1 343.208Z" fill="white"/>
</g>
<g opacity="0.75">
<path d="M1212.23 620.658C1221.14 620.658 1228.36 613.438 1228.36 604.53C1228.36 595.623 1221.14 588.402 1212.23 588.402C1203.32 588.402 1196.1 595.623 1196.1 604.53C1196.1 613.438 1203.32 620.658 1212.23 620.658Z" fill="white"/>
</g>
<g opacity="0.75">
<path d="M1169.49 624.529C1172.85 621.17 1172.85 615.724 1169.49 612.364C1166.13 609.005 1160.68 609.005 1157.32 612.365C1153.96 615.724 1153.96 621.17 1157.32 624.53C1160.68 627.889 1166.13 627.889 1169.49 624.529Z" fill="white"/>
</g>
<g opacity="0.5">
<path d="M1135.87 358.328C1135.87 218.043 1284.15 104.32 1467.07 104.32C1649.99 104.32 1798.28 218.043 1798.28 358.328C1798.28 498.613 1649.99 612.336 1467.07 612.336C1392.7 612.336 1324.05 593.535 1268.77 561.793C1264.18 568.344 1256.59 572.633 1247.98 572.633C1233.98 572.633 1222.63 561.28 1222.63 547.276C1222.62 542.271 1224.1 537.377 1226.88 533.216C1170.48 487.67 1135.87 426.101 1135.87 358.328Z" fill="white"/>
</g>
<g opacity="0.5">
<path d="M1668.07 95.8203C1668.07 95.8203 1779.38 151.475 1812.47 250.752C1812.47 250.752 1802.32 127.784 1668.07 95.8203Z" fill="white"/>
</g>
<g opacity="0.5">
<path d="M1133.54 444.737C1133.54 444.737 1092.78 327.154 1138.45 233.002C1138.45 233.002 1059.81 328.079 1133.54 444.737Z" fill="white"/>
</g>
<path d="M1399.2 158.435V196H1393.04V170.272L1381.58 196H1377.31L1365.8 170.272V196H1359.63V158.435H1366.28L1379.47 187.893L1392.61 158.435H1399.2ZM1405.24 180.974C1405.24 177.983 1405.86 175.335 1407.08 173.029C1408.34 170.723 1410.04 168.939 1412.16 167.678C1414.32 166.381 1416.7 165.732 1419.3 165.732C1421.64 165.732 1423.68 166.201 1425.4 167.137C1427.17 168.038 1428.58 169.173 1429.62 170.543V166.219H1435.84V196H1429.62V191.568C1428.58 192.973 1427.15 194.144 1425.35 195.081C1423.55 196.018 1421.5 196.486 1419.19 196.486C1416.63 196.486 1414.29 195.838 1412.16 194.541C1410.04 193.207 1408.34 191.37 1407.08 189.028C1405.86 186.649 1405.24 183.965 1405.24 180.974ZM1429.62 181.082C1429.62 179.028 1429.19 177.245 1428.32 175.731C1427.49 174.218 1426.4 173.065 1425.03 172.272C1423.66 171.479 1422.18 171.083 1420.59 171.083C1419.01 171.083 1417.53 171.479 1416.16 172.272C1414.79 173.029 1413.68 174.164 1412.81 175.677C1411.98 177.155 1411.57 178.92 1411.57 180.974C1411.57 183.028 1411.98 184.83 1412.81 186.379C1413.68 187.929 1414.79 189.118 1416.16 189.946C1417.57 190.739 1419.04 191.136 1420.59 191.136C1422.18 191.136 1423.66 190.739 1425.03 189.946C1426.4 189.154 1427.49 188.001 1428.32 186.487C1429.19 184.938 1429.62 183.136 1429.62 181.082ZM1450.09 170.543C1450.99 169.029 1452.18 167.858 1453.66 167.029C1455.17 166.165 1456.96 165.732 1459.01 165.732V172.11H1457.44C1455.03 172.11 1453.19 172.723 1451.93 173.948C1450.7 175.173 1450.09 177.299 1450.09 180.326V196H1443.93V166.219H1450.09V170.543ZM1476.46 181.136L1490.18 196H1481.86L1470.83 183.19V196H1464.67V156.003H1470.83V179.245L1481.64 166.219H1490.18L1476.46 181.136ZM1521.9 180.38C1521.9 181.497 1521.82 182.506 1521.68 183.406H1498.93C1499.11 185.785 1499.99 187.694 1501.57 189.136C1503.16 190.577 1505.1 191.298 1507.41 191.298C1510.73 191.298 1513.07 189.91 1514.44 187.136H1521.09C1520.18 189.874 1518.55 192.126 1516.17 193.892C1513.82 195.622 1510.91 196.486 1507.41 196.486C1504.56 196.486 1502.01 195.856 1499.74 194.595C1497.5 193.298 1495.74 191.496 1494.44 189.19C1493.18 186.848 1492.55 184.145 1492.55 181.082C1492.55 178.019 1493.16 175.335 1494.38 173.029C1495.65 170.687 1497.39 168.885 1499.63 167.624C1501.9 166.363 1504.49 165.732 1507.41 165.732C1510.22 165.732 1512.73 166.345 1514.92 167.57C1517.12 168.795 1518.83 170.525 1520.06 172.759C1521.28 174.957 1521.9 177.497 1521.9 180.38ZM1515.46 178.434C1515.43 176.164 1514.62 174.344 1513.03 172.975C1511.45 171.606 1509.48 170.921 1507.14 170.921C1505.01 170.921 1503.19 171.606 1501.68 172.975C1500.17 174.308 1499.27 176.128 1498.98 178.434H1515.46ZM1535.15 171.245V187.73C1535.15 188.847 1535.4 189.658 1535.91 190.163C1536.45 190.631 1537.35 190.865 1538.61 190.865H1542.39V196H1537.53C1534.75 196 1532.63 195.351 1531.15 194.054C1529.67 192.757 1528.93 190.649 1528.93 187.73V171.245H1525.42V166.219H1528.93V158.814H1535.15V166.219H1542.39V171.245H1535.15ZM1551.21 162.273C1550.09 162.273 1549.15 161.895 1548.39 161.138C1547.64 160.381 1547.26 159.444 1547.26 158.327C1547.26 157.21 1547.64 156.273 1548.39 155.517C1549.15 154.76 1550.09 154.382 1551.21 154.382C1552.29 154.382 1553.2 154.76 1553.96 155.517C1554.72 156.273 1555.1 157.21 1555.1 158.327C1555.1 159.444 1554.72 160.381 1553.96 161.138C1553.2 161.895 1552.29 162.273 1551.21 162.273ZM1554.23 166.219V196H1548.07V166.219H1554.23ZM1577.35 165.732C1579.69 165.732 1581.78 166.219 1583.62 167.191C1585.49 168.164 1586.95 169.606 1588 171.515C1589.04 173.425 1589.56 175.731 1589.56 178.434V196H1583.46V179.353C1583.46 176.686 1582.79 174.65 1581.46 173.245C1580.12 171.804 1578.3 171.083 1576 171.083C1573.69 171.083 1571.85 171.804 1570.48 173.245C1569.15 174.65 1568.48 176.686 1568.48 179.353V196H1562.32V166.219H1568.48V169.624C1569.49 168.399 1570.77 167.444 1572.32 166.759C1573.91 166.074 1575.58 165.732 1577.35 165.732ZM1609.42 165.732C1611.73 165.732 1613.76 166.201 1615.53 167.137C1617.33 168.038 1618.74 169.173 1619.74 170.543V166.219H1625.96V196.486C1625.96 199.225 1625.38 201.657 1624.23 203.783C1623.08 205.945 1621.4 207.639 1619.2 208.864C1617.04 210.089 1614.45 210.702 1611.42 210.702C1607.39 210.702 1604.03 209.747 1601.37 207.837C1598.7 205.963 1597.19 203.405 1596.83 200.162H1602.94C1603.4 201.711 1604.39 202.954 1605.91 203.891C1607.46 204.864 1609.3 205.351 1611.42 205.351C1613.91 205.351 1615.91 204.594 1617.42 203.081C1618.97 201.567 1619.74 199.369 1619.74 196.486V191.514C1618.7 192.919 1617.28 194.108 1615.47 195.081C1613.71 196.018 1611.69 196.486 1609.42 196.486C1606.83 196.486 1604.45 195.838 1602.29 194.541C1600.16 193.207 1598.47 191.37 1597.21 189.028C1595.98 186.649 1595.37 183.965 1595.37 180.974C1595.37 177.983 1595.98 175.335 1597.21 173.029C1598.47 170.723 1600.16 168.939 1602.29 167.678C1604.45 166.381 1606.83 165.732 1609.42 165.732ZM1619.74 181.082C1619.74 179.028 1619.31 177.245 1618.45 175.731C1617.62 174.218 1616.52 173.065 1615.15 172.272C1613.78 171.479 1612.3 171.083 1610.72 171.083C1609.13 171.083 1607.66 171.479 1606.29 172.272C1604.92 173.029 1603.8 174.164 1602.94 175.677C1602.11 177.155 1601.69 178.92 1601.69 180.974C1601.69 183.028 1602.11 184.83 1602.94 186.379C1603.8 187.929 1604.92 189.118 1606.29 189.946C1607.69 190.739 1609.17 191.136 1610.72 191.136C1612.3 191.136 1613.78 190.739 1615.15 189.946C1616.52 189.154 1617.62 188.001 1618.45 186.487C1619.31 184.938 1619.74 183.136 1619.74 181.082Z" fill="#0B8C20"/>
<path d="M1483.7 407.378C1481.17 407.378 1478.9 406.946 1476.89 406.081C1474.87 405.18 1473.28 403.919 1472.13 402.298C1470.98 400.676 1470.4 398.784 1470.4 396.622H1477C1477.14 398.244 1477.77 399.577 1478.89 400.622C1480.04 401.667 1481.64 402.19 1483.7 402.19C1485.82 402.19 1487.48 401.685 1488.67 400.676C1489.86 399.631 1490.45 398.298 1490.45 396.676C1490.45 395.415 1490.08 394.388 1489.32 393.596C1488.6 392.803 1487.68 392.19 1486.56 391.758C1485.48 391.326 1483.97 390.857 1482.02 390.353C1479.57 389.704 1477.57 389.055 1476.02 388.407C1474.51 387.722 1473.21 386.677 1472.13 385.272C1471.05 383.867 1470.51 381.993 1470.51 379.651C1470.51 377.489 1471.05 375.597 1472.13 373.976C1473.21 372.354 1474.73 371.111 1476.67 370.246C1478.62 369.381 1480.87 368.949 1483.43 368.949C1487.07 368.949 1490.04 369.868 1492.35 371.705C1494.69 373.507 1495.98 375.993 1496.24 379.164H1489.43C1489.32 377.795 1488.67 376.624 1487.48 375.651C1486.29 374.678 1484.72 374.192 1482.78 374.192C1481.01 374.192 1479.57 374.642 1478.45 375.543C1477.34 376.444 1476.78 377.741 1476.78 379.435C1476.78 380.588 1477.12 381.543 1477.81 382.299C1478.53 383.02 1479.43 383.596 1480.51 384.029C1481.59 384.461 1483.07 384.93 1484.94 385.434C1487.43 386.119 1489.44 386.803 1490.99 387.488C1492.58 388.173 1493.91 389.236 1494.99 390.677C1496.11 392.082 1496.67 393.974 1496.67 396.352C1496.67 398.262 1496.15 400.064 1495.1 401.757C1494.09 403.451 1492.6 404.82 1490.62 405.865C1488.67 406.874 1486.36 407.378 1483.7 407.378ZM1501.89 391.974C1501.89 388.983 1502.5 386.335 1503.72 384.029C1504.98 381.723 1506.68 379.939 1508.8 378.678C1510.97 377.381 1513.34 376.732 1515.94 376.732C1518.28 376.732 1520.32 377.201 1522.05 378.137C1523.81 379.038 1525.22 380.173 1526.26 381.543V377.219H1532.48V407H1526.26V402.568C1525.22 403.973 1523.79 405.144 1521.99 406.081C1520.19 407.018 1518.14 407.486 1515.83 407.486C1513.27 407.486 1510.93 406.838 1508.8 405.541C1506.68 404.207 1504.98 402.37 1503.72 400.028C1502.5 397.649 1501.89 394.965 1501.89 391.974ZM1526.26 392.082C1526.26 390.028 1525.83 388.245 1524.97 386.731C1524.14 385.218 1523.04 384.065 1521.67 383.272C1520.3 382.479 1518.82 382.083 1517.24 382.083C1515.65 382.083 1514.17 382.479 1512.8 383.272C1511.43 384.029 1510.32 385.164 1509.45 386.677C1508.62 388.155 1508.21 389.92 1508.21 391.974C1508.21 394.028 1508.62 395.83 1509.45 397.379C1510.32 398.929 1511.43 400.118 1512.8 400.946C1514.21 401.739 1515.69 402.136 1517.24 402.136C1518.82 402.136 1520.3 401.739 1521.67 400.946C1523.04 400.154 1524.14 399.001 1524.97 397.487C1525.83 395.938 1526.26 394.136 1526.26 392.082ZM1546.73 367.003V407H1540.57V367.003H1546.73ZM1582.12 391.38C1582.12 392.497 1582.05 393.506 1581.9 394.406H1559.15C1559.33 396.785 1560.21 398.694 1561.8 400.136C1563.38 401.577 1565.33 402.298 1567.63 402.298C1570.95 402.298 1573.29 400.91 1574.66 398.136H1581.31C1580.41 400.874 1578.77 403.126 1576.39 404.892C1574.05 406.622 1571.13 407.486 1567.63 407.486C1564.79 407.486 1562.23 406.856 1559.96 405.595C1557.72 404.298 1555.96 402.496 1554.66 400.19C1553.4 397.848 1552.77 395.145 1552.77 392.082C1552.77 389.019 1553.38 386.335 1554.61 384.029C1555.87 381.687 1557.62 379.885 1559.85 378.624C1562.12 377.363 1564.71 376.732 1567.63 376.732C1570.44 376.732 1572.95 377.345 1575.15 378.57C1577.34 379.795 1579.05 381.525 1580.28 383.759C1581.51 385.957 1582.12 388.497 1582.12 391.38ZM1575.69 389.434C1575.65 387.164 1574.84 385.344 1573.25 383.975C1571.67 382.606 1569.7 381.921 1567.36 381.921C1565.24 381.921 1563.42 382.606 1561.9 383.975C1560.39 385.308 1559.49 387.128 1559.2 389.434H1575.69ZM1598.99 407.486C1596.65 407.486 1594.54 407.072 1592.67 406.243C1590.83 405.379 1589.37 404.225 1588.29 402.784C1587.21 401.307 1586.63 399.667 1586.56 397.866H1592.94C1593.05 399.127 1593.64 400.19 1594.72 401.055C1595.84 401.883 1597.23 402.298 1598.88 402.298C1600.61 402.298 1601.95 401.973 1602.88 401.325C1603.86 400.64 1604.34 399.775 1604.34 398.73C1604.34 397.613 1603.8 396.785 1602.72 396.244C1601.68 395.704 1600 395.109 1597.69 394.46C1595.46 393.848 1593.64 393.253 1592.24 392.677C1590.83 392.1 1589.6 391.217 1588.56 390.028C1587.55 388.839 1587.05 387.272 1587.05 385.326C1587.05 383.741 1587.51 382.299 1588.45 381.002C1589.39 379.669 1590.72 378.624 1592.45 377.867C1594.22 377.11 1596.23 376.732 1598.5 376.732C1601.89 376.732 1604.61 377.597 1606.67 379.327C1608.76 381.02 1609.87 383.344 1610.02 386.299H1603.86C1603.75 384.966 1603.21 383.903 1602.23 383.11C1601.26 382.317 1599.95 381.921 1598.29 381.921C1596.67 381.921 1595.42 382.227 1594.56 382.84C1593.69 383.452 1593.26 384.263 1593.26 385.272C1593.26 386.065 1593.55 386.731 1594.13 387.272C1594.7 387.812 1595.41 388.245 1596.23 388.569C1597.06 388.857 1598.29 389.236 1599.91 389.704C1602.07 390.281 1603.84 390.875 1605.21 391.488C1606.61 392.064 1607.82 392.929 1608.83 394.082C1609.84 395.235 1610.36 396.767 1610.4 398.676C1610.4 400.37 1609.93 401.883 1608.99 403.217C1608.05 404.55 1606.72 405.595 1604.99 406.351C1603.3 407.108 1601.3 407.486 1598.99 407.486Z" fill="#0085B8"/>
<path d="M1285.71 470.624C1285.71 472.533 1285.26 474.335 1284.36 476.029C1283.46 477.722 1282.02 479.11 1280.04 480.191C1278.06 481.235 1275.52 481.758 1272.42 481.758H1265.61V497H1259.45V459.435H1272.42C1275.3 459.435 1277.73 459.94 1279.72 460.949C1281.73 461.922 1283.23 463.255 1284.2 464.948C1285.21 466.642 1285.71 468.534 1285.71 470.624ZM1272.42 476.731C1274.76 476.731 1276.51 476.209 1277.66 475.164C1278.81 474.083 1279.39 472.569 1279.39 470.624C1279.39 466.516 1277.07 464.462 1272.42 464.462H1265.61V476.731H1272.42ZM1297.75 471.543C1298.65 470.029 1299.84 468.858 1301.32 468.029C1302.83 467.165 1304.62 466.732 1306.67 466.732V473.11H1305.1C1302.69 473.11 1300.85 473.723 1299.59 474.948C1298.37 476.173 1297.75 478.299 1297.75 481.326V497H1291.59V467.219H1297.75V471.543ZM1325.25 497.486C1322.44 497.486 1319.9 496.856 1317.63 495.595C1315.36 494.298 1313.58 492.496 1312.28 490.19C1310.98 487.848 1310.34 485.145 1310.34 482.082C1310.34 479.055 1311 476.371 1312.34 474.029C1313.67 471.687 1315.49 469.885 1317.79 468.624C1320.1 467.363 1322.68 466.732 1325.52 466.732C1328.37 466.732 1330.95 467.363 1333.25 468.624C1335.56 469.885 1337.38 471.687 1338.71 474.029C1340.04 476.371 1340.71 479.055 1340.71 482.082C1340.71 485.109 1340.03 487.794 1338.66 490.136C1337.29 492.478 1335.41 494.298 1333.04 495.595C1330.69 496.856 1328.1 497.486 1325.25 497.486ZM1325.25 492.136C1326.84 492.136 1328.32 491.757 1329.69 491C1331.09 490.244 1332.23 489.109 1333.09 487.595C1333.96 486.082 1334.39 484.244 1334.39 482.082C1334.39 479.92 1333.97 478.101 1333.14 476.623C1332.32 475.11 1331.22 473.975 1329.85 473.218C1328.48 472.461 1327 472.083 1325.42 472.083C1323.83 472.083 1322.35 472.461 1320.98 473.218C1319.65 473.975 1318.59 475.11 1317.79 476.623C1317 478.101 1316.61 479.92 1316.61 482.082C1316.61 485.289 1317.42 487.776 1319.04 489.541C1320.69 491.271 1322.77 492.136 1325.25 492.136ZM1344.75 481.974C1344.75 478.983 1345.36 476.335 1346.59 474.029C1347.85 471.723 1349.54 469.939 1351.67 468.678C1353.83 467.381 1356.23 466.732 1358.86 466.732C1360.8 466.732 1362.71 467.165 1364.58 468.029C1366.49 468.858 1368.01 469.975 1369.13 471.38V457.003H1375.34V497H1369.13V492.514C1368.12 493.955 1366.71 495.144 1364.91 496.081C1363.14 497.018 1361.11 497.486 1358.8 497.486C1356.21 497.486 1353.83 496.838 1351.67 495.541C1349.54 494.207 1347.85 492.37 1346.59 490.028C1345.36 487.649 1344.75 484.965 1344.75 481.974ZM1369.13 482.082C1369.13 480.028 1368.69 478.245 1367.83 476.731C1367 475.218 1365.9 474.065 1364.53 473.272C1363.16 472.479 1361.68 472.083 1360.1 472.083C1358.51 472.083 1357.04 472.479 1355.67 473.272C1354.3 474.029 1353.18 475.164 1352.32 476.677C1351.49 478.155 1351.07 479.92 1351.07 481.974C1351.07 484.028 1351.49 485.83 1352.32 487.379C1353.18 488.929 1354.3 490.118 1355.67 490.946C1357.07 491.739 1358.55 492.136 1360.1 492.136C1361.68 492.136 1363.16 491.739 1364.53 490.946C1365.9 490.154 1367 489.001 1367.83 487.487C1368.69 485.938 1369.13 484.136 1369.13 482.082ZM1410.4 467.219V497H1404.24V493.487C1403.27 494.712 1401.99 495.685 1400.41 496.405C1398.86 497.09 1397.2 497.432 1395.43 497.432C1393.09 497.432 1390.98 496.946 1389.11 495.973C1387.27 495 1385.81 493.559 1384.73 491.649C1383.69 489.739 1383.16 487.433 1383.16 484.731V467.219H1389.27V483.812C1389.27 486.478 1389.94 488.532 1391.27 489.974C1392.6 491.379 1394.42 492.081 1396.73 492.081C1399.04 492.081 1400.86 491.379 1402.19 489.974C1403.56 488.532 1404.24 486.478 1404.24 483.812V467.219H1410.4ZM1416.48 482.082C1416.48 479.019 1417.09 476.335 1418.32 474.029C1419.58 471.687 1421.31 469.885 1423.51 468.624C1425.71 467.363 1428.23 466.732 1431.07 466.732C1434.68 466.732 1437.65 467.597 1439.99 469.327C1442.37 471.02 1443.97 473.452 1444.8 476.623H1438.15C1437.61 475.146 1436.75 473.993 1435.56 473.164C1434.37 472.335 1432.88 471.921 1431.07 471.921C1428.55 471.921 1426.53 472.822 1425.02 474.623C1423.54 476.389 1422.8 478.875 1422.8 482.082C1422.8 485.289 1423.54 487.794 1425.02 489.595C1426.53 491.397 1428.55 492.298 1431.07 492.298C1434.64 492.298 1437 490.73 1438.15 487.595H1444.8C1443.94 490.622 1442.32 493.036 1439.94 494.838C1437.56 496.604 1434.61 497.486 1431.07 497.486C1428.23 497.486 1425.71 496.856 1423.51 495.595C1421.31 494.298 1419.58 492.496 1418.32 490.19C1417.09 487.848 1416.48 485.145 1416.48 482.082ZM1458.13 472.245V488.73C1458.13 489.847 1458.38 490.658 1458.89 491.163C1459.43 491.631 1460.33 491.865 1461.59 491.865H1465.37V497H1460.51C1457.74 497 1455.61 496.351 1454.13 495.054C1452.65 493.757 1451.92 491.649 1451.92 488.73V472.245H1448.4V467.219H1451.92V459.814H1458.13V467.219H1465.37V472.245H1458.13Z" fill="#BB3395"/>
<path d="M1600.28 529L1585.74 512.191V529H1579.58V491.435H1585.74V508.569L1600.34 491.435H1608.07L1591.74 510.245L1608.34 529H1600.28ZM1640.05 502.624C1640.05 504.533 1639.6 506.335 1638.7 508.029C1637.8 509.722 1636.36 511.11 1634.38 512.191C1632.4 513.235 1629.86 513.758 1626.76 513.758H1619.95V529H1613.79V491.435H1626.76C1629.64 491.435 1632.07 491.94 1634.05 492.949C1636.07 493.922 1637.57 495.255 1638.54 496.948C1639.55 498.642 1640.05 500.534 1640.05 502.624ZM1626.76 508.731C1629.1 508.731 1630.85 508.209 1632 507.164C1633.15 506.083 1633.73 504.569 1633.73 502.624C1633.73 498.516 1631.41 496.462 1626.76 496.462H1619.95V508.731H1626.76ZM1652.09 491.435V529H1645.93V491.435H1652.09ZM1670.99 529.486C1668.65 529.486 1666.54 529.072 1664.67 528.243C1662.83 527.379 1661.37 526.225 1660.29 524.784C1659.21 523.307 1658.63 521.667 1658.56 519.866H1664.94C1665.05 521.127 1665.64 522.19 1666.72 523.055C1667.84 523.883 1669.23 524.298 1670.88 524.298C1672.61 524.298 1673.95 523.973 1674.88 523.325C1675.86 522.64 1676.34 521.775 1676.34 520.73C1676.34 519.613 1675.8 518.785 1674.72 518.244C1673.68 517.704 1672 517.109 1669.69 516.46C1667.46 515.848 1665.64 515.253 1664.24 514.677C1662.83 514.1 1661.6 513.217 1660.56 512.028C1659.55 510.839 1659.05 509.272 1659.05 507.326C1659.05 505.741 1659.51 504.299 1660.45 503.002C1661.39 501.669 1662.72 500.624 1664.45 499.867C1666.22 499.11 1668.23 498.732 1670.5 498.732C1673.89 498.732 1676.61 499.597 1678.67 501.327C1680.76 503.02 1681.87 505.344 1682.02 508.299H1675.86C1675.75 506.966 1675.21 505.903 1674.23 505.11C1673.26 504.317 1671.95 503.921 1670.29 503.921C1668.67 503.921 1667.42 504.227 1666.56 504.84C1665.69 505.452 1665.26 506.263 1665.26 507.272C1665.26 508.065 1665.55 508.731 1666.13 509.272C1666.7 509.812 1667.41 510.245 1668.23 510.569C1669.06 510.857 1670.29 511.236 1671.91 511.704C1674.07 512.281 1675.84 512.875 1677.21 513.488C1678.61 514.064 1679.82 514.929 1680.83 516.082C1681.84 517.235 1682.36 518.767 1682.4 520.676C1682.4 522.37 1681.93 523.883 1680.99 525.217C1680.05 526.55 1678.72 527.595 1676.99 528.351C1675.3 529.108 1673.3 529.486 1670.99 529.486Z" fill="#E22700"/>
<path d="M1605.14 264.408V275.434H1618.11V280.461H1605.14V291.973H1619.73V297H1598.98V259.381H1619.73V264.408H1605.14ZM1642.35 266.732C1644.69 266.732 1646.78 267.219 1648.62 268.191C1650.49 269.164 1651.95 270.606 1653 272.515C1654.04 274.425 1654.56 276.731 1654.56 279.434V297H1648.46V280.353C1648.46 277.686 1647.79 275.65 1646.46 274.245C1645.12 272.804 1643.3 272.083 1641 272.083C1638.69 272.083 1636.85 272.804 1635.48 274.245C1634.15 275.65 1633.48 277.686 1633.48 280.353V297H1627.32V267.219H1633.48V270.624C1634.49 269.399 1635.77 268.444 1637.32 267.759C1638.91 267.074 1640.58 266.732 1642.35 266.732ZM1674.42 266.732C1676.73 266.732 1678.76 267.201 1680.53 268.137C1682.33 269.038 1683.74 270.173 1684.74 271.543V267.219H1690.96V297.486C1690.96 300.225 1690.38 302.657 1689.23 304.783C1688.08 306.945 1686.4 308.639 1684.2 309.864C1682.04 311.089 1679.45 311.702 1676.42 311.702C1672.39 311.702 1669.03 310.747 1666.37 308.837C1663.7 306.963 1662.19 304.405 1661.83 301.162H1667.94C1668.4 302.711 1669.39 303.954 1670.91 304.891C1672.46 305.864 1674.3 306.351 1676.42 306.351C1678.91 306.351 1680.91 305.594 1682.42 304.081C1683.97 302.567 1684.74 300.369 1684.74 297.486V292.514C1683.7 293.919 1682.28 295.108 1680.47 296.081C1678.71 297.018 1676.69 297.486 1674.42 297.486C1671.83 297.486 1669.45 296.838 1667.29 295.541C1665.16 294.207 1663.47 292.37 1662.21 290.028C1660.98 287.649 1660.37 284.965 1660.37 281.974C1660.37 278.983 1660.98 276.335 1662.21 274.029C1663.47 271.723 1665.16 269.939 1667.29 268.678C1669.45 267.381 1671.83 266.732 1674.42 266.732ZM1684.74 282.082C1684.74 280.028 1684.31 278.245 1683.45 276.731C1682.62 275.218 1681.52 274.065 1680.15 273.272C1678.78 272.479 1677.3 272.083 1675.72 272.083C1674.13 272.083 1672.66 272.479 1671.29 273.272C1669.92 274.029 1668.8 275.164 1667.94 276.677C1667.11 278.155 1666.69 279.92 1666.69 281.974C1666.69 284.028 1667.11 285.83 1667.94 287.379C1668.8 288.929 1669.92 290.118 1671.29 290.946C1672.69 291.739 1674.17 292.136 1675.72 292.136C1677.3 292.136 1678.78 291.739 1680.15 290.946C1681.52 290.154 1682.62 289.001 1683.45 287.487C1684.31 285.938 1684.74 284.136 1684.74 282.082Z" fill="#920000"/>
<path d="M1252.16 272.704C1254.18 273.065 1255.89 274.128 1257.29 275.893C1258.7 277.659 1259.4 279.659 1259.4 281.893C1259.4 283.802 1258.9 285.532 1257.89 287.081C1256.92 288.595 1255.49 289.802 1253.62 290.703C1251.75 291.568 1249.57 292 1247.08 292H1232.05V254.435H1246.38C1248.94 254.435 1251.13 254.868 1252.97 255.733C1254.81 256.597 1256.2 257.768 1257.13 259.246C1258.07 260.687 1258.54 262.309 1258.54 264.11C1258.54 266.272 1257.96 268.074 1256.81 269.515C1255.66 270.957 1254.11 272.02 1252.16 272.704ZM1238.22 270.218H1245.84C1247.85 270.218 1249.42 269.768 1250.54 268.867C1251.69 267.93 1252.27 266.597 1252.27 264.867C1252.27 263.173 1251.69 261.858 1250.54 260.921C1249.42 259.948 1247.85 259.462 1245.84 259.462H1238.22V270.218ZM1246.54 286.973C1248.63 286.973 1250.27 286.469 1251.46 285.46C1252.65 284.451 1253.24 283.046 1253.24 281.244C1253.24 279.406 1252.61 277.947 1251.35 276.866C1250.09 275.785 1248.41 275.245 1246.32 275.245H1238.22V286.973H1246.54ZM1293.07 262.219V292H1286.91V288.487C1285.94 289.712 1284.66 290.685 1283.07 291.405C1281.52 292.09 1279.86 292.432 1278.1 292.432C1275.76 292.432 1273.65 291.946 1271.77 290.973C1269.94 290 1268.48 288.559 1267.4 286.649C1266.35 284.739 1265.83 282.433 1265.83 279.731V262.219H1271.94V278.812C1271.94 281.478 1272.6 283.532 1273.94 284.974C1275.27 286.379 1277.09 287.081 1279.4 287.081C1281.7 287.081 1283.52 286.379 1284.85 284.974C1286.22 283.532 1286.91 281.478 1286.91 278.812V262.219H1293.07ZM1312.01 292.486C1309.67 292.486 1307.56 292.072 1305.69 291.243C1303.85 290.379 1302.39 289.225 1301.31 287.784C1300.23 286.307 1299.65 284.667 1299.58 282.866H1305.96C1306.06 284.127 1306.66 285.19 1307.74 286.055C1308.86 286.883 1310.24 287.298 1311.9 287.298C1313.63 287.298 1314.96 286.973 1315.9 286.325C1316.87 285.64 1317.36 284.775 1317.36 283.73C1317.36 282.613 1316.82 281.785 1315.74 281.244C1314.69 280.704 1313.02 280.109 1310.71 279.46C1308.48 278.848 1306.66 278.253 1305.25 277.677C1303.85 277.1 1302.62 276.217 1301.58 275.028C1300.57 273.839 1300.06 272.272 1300.06 270.326C1300.06 268.741 1300.53 267.299 1301.47 266.002C1302.41 264.669 1303.74 263.624 1305.47 262.867C1307.24 262.11 1309.25 261.732 1311.52 261.732C1314.91 261.732 1317.63 262.597 1319.68 264.327C1321.77 266.02 1322.89 268.344 1323.04 271.299H1316.87C1316.77 269.966 1316.23 268.903 1315.25 268.11C1314.28 267.317 1312.96 266.921 1311.31 266.921C1309.69 266.921 1308.44 267.227 1307.58 267.84C1306.71 268.452 1306.28 269.263 1306.28 270.272C1306.28 271.065 1306.57 271.731 1307.14 272.272C1307.72 272.812 1308.42 273.245 1309.25 273.569C1310.08 273.857 1311.31 274.236 1312.93 274.704C1315.09 275.281 1316.86 275.875 1318.23 276.488C1319.63 277.064 1320.84 277.929 1321.85 279.082C1322.86 280.235 1323.38 281.767 1323.41 283.676C1323.41 285.37 1322.95 286.883 1322.01 288.217C1321.07 289.55 1319.74 290.595 1318.01 291.351C1316.32 292.108 1314.32 292.486 1312.01 292.486ZM1333.21 258.273C1332.09 258.273 1331.15 257.895 1330.4 257.138C1329.64 256.381 1329.26 255.444 1329.26 254.327C1329.26 253.21 1329.64 252.273 1330.4 251.517C1331.15 250.76 1332.09 250.382 1333.21 250.382C1334.29 250.382 1335.21 250.76 1335.96 251.517C1336.72 252.273 1337.1 253.21 1337.1 254.327C1337.1 255.444 1336.72 256.381 1335.96 257.138C1335.21 257.895 1334.29 258.273 1333.21 258.273ZM1336.23 262.219V292H1330.07V262.219H1336.23ZM1359.35 261.732C1361.69 261.732 1363.78 262.219 1365.62 263.191C1367.49 264.164 1368.95 265.606 1370 267.515C1371.04 269.425 1371.56 271.731 1371.56 274.434V292H1365.46V275.353C1365.46 272.686 1364.79 270.65 1363.46 269.245C1362.12 267.804 1360.3 267.083 1358 267.083C1355.69 267.083 1353.85 267.804 1352.48 269.245C1351.15 270.65 1350.48 272.686 1350.48 275.353V292H1344.32V262.219H1350.48V265.624C1351.49 264.399 1352.77 263.444 1354.32 262.759C1355.91 262.074 1357.58 261.732 1359.35 261.732ZM1406.72 276.38C1406.72 277.497 1406.65 278.506 1406.5 279.406H1383.75C1383.93 281.785 1384.81 283.694 1386.4 285.136C1387.98 286.577 1389.93 287.298 1392.23 287.298C1395.55 287.298 1397.89 285.91 1399.26 283.136H1405.91C1405.01 285.874 1403.37 288.126 1400.99 289.892C1398.65 291.622 1395.73 292.486 1392.23 292.486C1389.39 292.486 1386.83 291.856 1384.56 290.595C1382.32 289.298 1380.56 287.496 1379.26 285.19C1378 282.848 1377.37 280.145 1377.37 277.082C1377.37 274.019 1377.98 271.335 1379.21 269.029C1380.47 266.687 1382.22 264.885 1384.45 263.624C1386.72 262.363 1389.31 261.732 1392.23 261.732C1395.04 261.732 1397.55 262.345 1399.75 263.57C1401.94 264.795 1403.66 266.525 1404.88 268.759C1406.11 270.957 1406.72 273.497 1406.72 276.38ZM1400.29 274.434C1400.25 272.164 1399.44 270.344 1397.85 268.975C1396.27 267.606 1394.31 266.921 1391.96 266.921C1389.84 266.921 1388.02 267.606 1386.5 268.975C1384.99 270.308 1384.09 272.128 1383.8 274.434H1400.29ZM1423.59 292.486C1421.25 292.486 1419.14 292.072 1417.27 291.243C1415.43 290.379 1413.97 289.225 1412.89 287.784C1411.81 286.307 1411.23 284.667 1411.16 282.866H1417.54C1417.65 284.127 1418.24 285.19 1419.32 286.055C1420.44 286.883 1421.83 287.298 1423.48 287.298C1425.21 287.298 1426.55 286.973 1427.48 286.325C1428.46 285.64 1428.94 284.775 1428.94 283.73C1428.94 282.613 1428.4 281.785 1427.32 281.244C1426.28 280.704 1424.6 280.109 1422.3 279.46C1420.06 278.848 1418.24 278.253 1416.84 277.677C1415.43 277.1 1414.21 276.217 1413.16 275.028C1412.15 273.839 1411.65 272.272 1411.65 270.326C1411.65 268.741 1412.12 267.299 1413.05 266.002C1413.99 264.669 1415.32 263.624 1417.05 262.867C1418.82 262.11 1420.84 261.732 1423.11 261.732C1426.49 261.732 1429.21 262.597 1431.27 264.327C1433.36 266.02 1434.47 268.344 1434.62 271.299H1428.46C1428.35 269.966 1427.81 268.903 1426.84 268.11C1425.86 267.317 1424.55 266.921 1422.89 266.921C1421.27 266.921 1420.03 267.227 1419.16 267.84C1418.3 268.452 1417.86 269.263 1417.86 270.272C1417.86 271.065 1418.15 271.731 1418.73 272.272C1419.3 272.812 1420.01 273.245 1420.84 273.569C1421.66 273.857 1422.89 274.236 1424.51 274.704C1426.67 275.281 1428.44 275.875 1429.81 276.488C1431.21 277.064 1432.42 277.929 1433.43 279.082C1434.44 280.235 1434.96 281.767 1435 283.676C1435 285.37 1434.53 286.883 1433.59 288.217C1432.66 289.55 1431.32 290.595 1429.59 291.351C1427.9 292.108 1425.9 292.486 1423.59 292.486ZM1452.46 292.486C1450.12 292.486 1448.01 292.072 1446.14 291.243C1444.3 290.379 1442.84 289.225 1441.76 287.784C1440.68 286.307 1440.11 284.667 1440.03 282.866H1446.41C1446.52 284.127 1447.11 285.19 1448.2 286.055C1449.31 286.883 1450.7 287.298 1452.36 287.298C1454.09 287.298 1455.42 286.973 1456.36 286.325C1457.33 285.64 1457.82 284.775 1457.82 283.73C1457.82 282.613 1457.28 281.785 1456.19 281.244C1455.15 280.704 1453.47 280.109 1451.17 279.46C1448.93 278.848 1447.11 278.253 1445.71 277.677C1444.3 277.1 1443.08 276.217 1442.03 275.028C1441.02 273.839 1440.52 272.272 1440.52 270.326C1440.52 268.741 1440.99 267.299 1441.93 266.002C1442.86 264.669 1444.2 263.624 1445.92 262.867C1447.69 262.11 1449.71 261.732 1451.98 261.732C1455.37 261.732 1458.09 262.597 1460.14 264.327C1462.23 266.02 1463.35 268.344 1463.49 271.299H1457.33C1457.22 269.966 1456.68 268.903 1455.71 268.11C1454.74 267.317 1453.42 266.921 1451.76 266.921C1450.14 266.921 1448.9 267.227 1448.03 267.84C1447.17 268.452 1446.74 269.263 1446.74 270.272C1446.74 271.065 1447.02 271.731 1447.6 272.272C1448.18 272.812 1448.88 273.245 1449.71 273.569C1450.54 273.857 1451.76 274.236 1453.38 274.704C1455.55 275.281 1457.31 275.875 1458.68 276.488C1460.09 277.064 1461.29 277.929 1462.3 279.082C1463.31 280.235 1463.83 281.767 1463.87 283.676C1463.87 285.37 1463.4 286.883 1462.46 288.217C1461.53 289.55 1460.19 290.595 1458.46 291.351C1456.77 292.108 1454.77 292.486 1452.46 292.486ZM1238.22 337.027H1250.92V342H1232.05V304.435H1238.22V337.027ZM1268.99 342.486C1266.18 342.486 1263.64 341.856 1261.37 340.595C1259.1 339.298 1257.31 337.496 1256.02 335.19C1254.72 332.848 1254.07 330.145 1254.07 327.082C1254.07 324.055 1254.74 321.371 1256.07 319.029C1257.4 316.687 1259.22 314.885 1261.53 313.624C1263.84 312.363 1266.41 311.732 1269.26 311.732C1272.1 311.732 1274.68 312.363 1276.99 313.624C1279.29 314.885 1281.11 316.687 1282.45 319.029C1283.78 321.371 1284.45 324.055 1284.45 327.082C1284.45 330.109 1283.76 332.794 1282.39 335.136C1281.02 337.478 1279.15 339.298 1276.77 340.595C1274.43 341.856 1271.83 342.486 1268.99 342.486ZM1268.99 337.136C1270.57 337.136 1272.05 336.757 1273.42 336C1274.83 335.244 1275.96 334.109 1276.83 332.595C1277.69 331.082 1278.12 329.244 1278.12 327.082C1278.12 324.92 1277.71 323.101 1276.88 321.623C1276.05 320.11 1274.95 318.975 1273.58 318.218C1272.21 317.461 1270.74 317.083 1269.15 317.083C1267.56 317.083 1266.09 317.461 1264.72 318.218C1263.38 318.975 1262.32 320.11 1261.53 321.623C1260.74 323.101 1260.34 324.92 1260.34 327.082C1260.34 330.289 1261.15 332.776 1262.77 334.541C1264.43 336.271 1266.5 337.136 1268.99 337.136ZM1302.54 311.732C1304.84 311.732 1306.88 312.201 1308.64 313.137C1310.45 314.038 1311.85 315.173 1312.86 316.543V312.219H1319.08V342.486C1319.08 345.225 1318.5 347.657 1317.35 349.783C1316.19 351.945 1314.52 353.639 1312.32 354.864C1310.16 356.089 1307.56 356.702 1304.54 356.702C1300.5 356.702 1297.15 355.747 1294.48 353.837C1291.82 351.963 1290.3 349.405 1289.94 346.162H1296.05C1296.52 347.711 1297.51 348.954 1299.02 349.891C1300.57 350.864 1302.41 351.351 1304.54 351.351C1307.02 351.351 1309.02 350.594 1310.54 349.081C1312.09 347.567 1312.86 345.369 1312.86 342.486V337.514C1311.81 338.919 1310.39 340.108 1308.59 341.081C1306.82 342.018 1304.81 342.486 1302.54 342.486C1299.94 342.486 1297.56 341.838 1295.4 340.541C1293.28 339.207 1291.58 337.37 1290.32 335.028C1289.1 332.649 1288.48 329.965 1288.48 326.974C1288.48 323.983 1289.1 321.335 1290.32 319.029C1291.58 316.723 1293.28 314.939 1295.4 313.678C1297.56 312.381 1299.94 311.732 1302.54 311.732ZM1312.86 327.082C1312.86 325.028 1312.43 323.245 1311.56 321.731C1310.73 320.218 1309.63 319.065 1308.27 318.272C1306.9 317.479 1305.42 317.083 1303.83 317.083C1302.25 317.083 1300.77 317.479 1299.4 318.272C1298.03 319.029 1296.92 320.164 1296.05 321.677C1295.22 323.155 1294.81 324.92 1294.81 326.974C1294.81 329.028 1295.22 330.83 1296.05 332.379C1296.92 333.929 1298.03 335.118 1299.4 335.946C1300.81 336.739 1302.28 337.136 1303.83 337.136C1305.42 337.136 1306.9 336.739 1308.27 335.946C1309.63 335.154 1310.73 334.001 1311.56 332.487C1312.43 330.938 1312.86 329.136 1312.86 327.082ZM1330.3 308.273C1329.19 308.273 1328.25 307.895 1327.49 307.138C1326.74 306.381 1326.36 305.444 1326.36 304.327C1326.36 303.21 1326.74 302.273 1327.49 301.517C1328.25 300.76 1329.19 300.382 1330.3 300.382C1331.38 300.382 1332.3 300.76 1333.06 301.517C1333.82 302.273 1334.2 303.21 1334.2 304.327C1334.2 305.444 1333.82 306.381 1333.06 307.138C1332.3 307.895 1331.38 308.273 1330.3 308.273ZM1333.33 312.219V342H1327.17V312.219H1333.33ZM1339.37 327.082C1339.37 324.019 1339.98 321.335 1341.2 319.029C1342.47 316.687 1344.19 314.885 1346.39 313.624C1348.59 312.363 1351.11 311.732 1353.96 311.732C1357.56 311.732 1360.54 312.597 1362.88 314.327C1365.26 316.02 1366.86 318.452 1367.69 321.623H1361.04C1360.5 320.146 1359.63 318.993 1358.45 318.164C1357.26 317.335 1355.76 316.921 1353.96 316.921C1351.44 316.921 1349.42 317.822 1347.91 319.623C1346.43 321.389 1345.69 323.875 1345.69 327.082C1345.69 330.289 1346.43 332.794 1347.91 334.595C1349.42 336.397 1351.44 337.298 1353.96 337.298C1357.53 337.298 1359.89 335.73 1361.04 332.595H1367.69C1366.82 335.622 1365.2 338.036 1362.82 339.838C1360.45 341.604 1357.49 342.486 1353.96 342.486C1351.11 342.486 1348.59 341.856 1346.39 340.595C1344.19 339.298 1342.47 337.496 1341.2 335.19C1339.98 332.848 1339.37 330.145 1339.37 327.082Z" fill="black"/>
</svg>
