<svg width="849" height="847" viewBox="0 0 849 847" fill="none" xmlns="http://www.w3.org/2000/svg">
<path d="M478.976 501.999C478.976 514.942 438.968 528.037 310.385 528.037C181.803 528.037 141.795 514.942 141.795 501.999C141.795 489.057 181.803 478.565 310.385 478.565C438.968 478.565 478.976 489.057 478.976 501.999Z" fill="#808080"/>
<path d="M478.976 500.262C478.976 513.204 438.968 521.092 310.385 521.092C181.803 521.092 141.795 513.204 141.795 500.262C141.795 487.32 181.803 476.828 310.385 476.828C438.968 476.828 478.976 487.32 478.976 500.262Z" fill="#CFCFCF"/>
<path d="M310.385 515.136C248.683 515.136 205.609 513.335 178.703 509.631C163.921 507.596 156.203 505.255 152.178 503.417C149.393 502.145 149.308 498.248 152.019 496.829C156.011 494.739 163.775 492.022 178.85 489.57C206.532 485.069 250.787 482.786 310.385 482.786C369.984 482.786 414.239 485.069 441.921 489.57C456.995 492.022 464.759 494.74 468.752 496.829C471.463 498.248 471.377 502.145 468.593 503.417C464.568 505.255 456.849 507.596 442.068 509.631C415.161 513.335 372.088 515.136 310.385 515.136Z" fill="#B8B8B8"/>
<path d="M683.238 186.855C679.183 168.006 677.451 161.07 670.782 156.716C661.301 150.525 646.031 139.529 628.868 128.828V194.035C634.245 192.643 638.27 191.974 639.547 192.953C641.285 193.52 641.653 249.14 641.653 249.14L693.327 251.35L683.238 186.855Z" fill="#007E99"/>
<path d="M630.876 130.088V193.537C635.234 192.501 638.435 192.101 639.547 192.954C639.657 192.989 639.761 193.246 639.86 193.693C640.871 193.692 641.63 193.835 642.061 194.166C642.268 194.233 642.192 197.603 641.833 199.024C657.906 189.579 664.626 174.769 670.545 156.56C661.424 150.589 647.078 140.296 630.876 130.088Z" fill="#9F9F9F"/>
<path d="M639.464 198.086C639.823 196.666 639.899 193.296 639.693 193.229C636.561 190.825 616.754 198.066 601.122 201.847C590.75 204.356 573.821 203.991 566.372 206.386C564.189 207.087 561.902 207.42 559.607 207.446C551.15 207.542 540.233 207.145 531.804 207.829C529.887 207.985 528.125 206.828 527.833 204.949C527.096 199.703 532.625 193.122 539.533 191.218C544.857 189.751 557.051 188.563 559.002 189.201C560.042 186.826 574.244 176.571 580.647 173.908C583.294 172.807 585.117 170.366 585.182 167.528C585.375 159.178 577.824 153.248 569.385 152.841C564.197 152.591 553.632 151.436 551.732 150.362C550.551 151.657 530.789 156.829 527.441 157.161C526.187 159.601 521.495 165.785 519.503 168.539C516.694 172.422 511.383 174.131 507.388 171.448C506.909 171.127 506.045 170.356 505.566 170.034C504.398 169.249 503.932 167.783 504.643 166.577C507.783 161.247 514.062 150.588 517.202 145.259C517.977 143.943 519.159 142.912 520.565 142.292C527.079 139.418 538.963 134.508 545.066 131.129C546.662 130.246 548.239 129.333 550.067 129.397L562.397 129.172C562.397 129.172 544.705 128.363 541.619 126.689C535.997 128.147 516.46 129.376 511.938 128.72C508.996 130.75 499.487 134.276 495.431 135.816C490.954 137.516 485.975 136.835 483.583 132.726C483.394 132.403 482.796 131.052 482.608 130.729C481.813 129.364 482.298 127.621 483.687 126.849C490.072 123.303 509.536 113.04 509.536 113.04C510.274 112.63 511.107 112.415 511.954 112.414L535.306 111.944C535.306 111.944 520.239 111.162 516.005 109.14C510.946 109.571 502.23 109.558 496.678 109.32C491.981 109.119 487.919 107.419 488.073 102.774C488.086 102.376 488.113 100.713 488.126 100.315C488.181 98.679 489.578 97.5796 491.231 97.4736C496.21 97.1542 512.541 96.9157 515.822 96.8703C516.207 96.8649 516.59 96.8822 516.973 96.9217L538.651 99.1562C538.651 99.1562 535.192 98.6371 534.772 97.5195C531.015 96.956 525.314 93.8843 521.729 92.0553C517.637 89.9678 514.484 85.3289 515.57 82.686C515.724 82.312 516.131 81.6101 516.318 81.2513C517.113 79.7281 518.971 79.1943 520.547 79.9087C538.309 87.9585 588.172 107.106 592.872 109.2C618.689 120.701 645.31 135.867 660.301 148.668C662.891 150.88 667.249 151.169 670.596 150.151C664.368 169.987 656.571 188.035 639.464 198.086Z" fill="#E1E1E1"/>
<path d="M683.238 186.856C683.113 186.277 682.991 185.71 682.87 185.153L634.91 191.694L635.048 192.959C637.322 192.638 638.963 192.67 639.692 193.23C639.899 193.297 639.823 196.666 639.464 198.087C639.757 197.915 640.039 197.736 640.326 197.561C641.4 210.992 641.653 249.14 641.653 249.14L693.327 251.35L683.238 186.856Z" fill="#9F9F9F"/>
<path d="M698.356 334.548L688.982 189.274L634.759 192.693L643.776 332.422L698.356 334.548Z" fill="#F0F0F0"/>
<path d="M698.355 334.537L689.731 200.883L635.352 201.869L643.776 332.42L698.34 334.546C698.345 334.543 698.35 334.54 698.355 334.537Z" fill="#9F9F9F"/>
<path d="M628.627 332.467C638.629 345.032 686.14 347.691 702.679 336.517C703.437 320.4 702.971 267.083 699.994 236.717C699.165 228.259 694.125 203.297 694.125 203.297L631.485 204.432C631.485 204.432 632.899 229.632 633.477 238.133C635.43 266.847 630.376 311.887 628.627 332.467Z" fill="#DF644A"/>
<path d="M642.274 196.844C642.274 198.193 641.168 199.287 639.803 199.287C638.438 199.287 637.331 198.193 637.331 196.844C637.331 195.495 638.438 194.401 639.803 194.401C641.168 194.401 642.274 195.495 642.274 196.844Z" fill="#707070"/>
<path d="M531.402 197.023C531.463 196.794 531.766 195.576 531.742 194.08C531.735 193.644 531.715 192.484 531.302 190.943C531.13 190.302 530.607 188.353 528.702 185.492C528.003 184.442 527.355 183.614 526.759 182.876C526.47 182.519 526.072 182.054 525.769 181.71C525.419 181.312 525.055 180.927 524.699 180.535C524.362 180.163 523.888 179.69 523.527 179.341C522.771 178.61 522.702 178.548 521.858 177.788C521.032 177.044 520.171 176.38 519.601 175.941C518.966 175.453 517.28 174.219 515.321 173.312C512.499 172.006 509.668 171.653 506.905 172.265C506.072 172.449 505.369 172.722 505.363 172.725C504.939 172.899 504.383 173.15 503.973 173.353C503.758 173.459 503.48 173.62 503.281 173.753C502.69 174.147 502.078 174.554 501.388 175.234C500.843 175.77 500.633 176.146 500.366 176.622C500.145 177.065 499.843 177.778 499.771 178.847C499.693 180 499.99 181.094 500.05 181.302C500.382 182.446 500.715 183.225 501.475 184.636C501.957 185.529 502.696 186.669 503.673 188.025C506.988 192.624 513.437 199.181 518.857 202.275C519.667 202.737 520.081 202.925 520.56 203.143C520.936 203.314 521.456 203.498 521.846 203.634C522.28 203.785 523.264 204.014 523.904 204.031C524.53 204.048 524.702 204.049 525.351 203.954C525.751 203.897 526.209 203.737 526.405 203.668C526.844 203.515 527.214 203.282 527.541 203.077C527.762 202.938 528.023 202.704 528.216 202.529C528.66 202.125 529.535 201.152 530.127 200.128C530.825 198.922 531.114 198.106 531.402 197.023ZM522.028 202.348C520.794 203.439 515.542 200.507 510.046 195.122C504.256 189.449 500.31 183.379 501.234 181.564C501.281 181.472 501.338 181.391 501.41 181.325C502.625 180.2 507.896 183.166 513.391 188.551C519.182 194.224 523.128 200.294 522.204 202.109C522.157 202.201 522.101 202.284 522.028 202.348Z" fill="white"/>
<path d="M508.441 184.165C507.871 183.71 502.714 180.075 501.41 181.325C501.271 181.445 501.261 181.49 501.234 181.564C500.864 182.291 501.276 183.701 502.274 185.493C502.397 186.265 501.403 186.996 500.893 187.486C500.405 187.953 499.917 188.421 499.43 188.888C500.223 188.128 501.553 189.054 502.273 189.489C503.844 190.438 505.288 191.552 506.656 192.768C509.279 195.098 511.616 197.692 513.472 200.663C513.993 201.497 515.291 203.142 514.32 204.072C515.064 203.359 515.746 202.574 516.572 201.948C516.551 201.959 516.533 201.974 516.519 201.992C516.616 201.921 516.705 201.839 516.804 201.77C516.96 201.663 517.124 201.567 517.294 201.485C517.067 201.595 516.856 201.735 516.655 201.886C517.029 201.618 517.476 201.353 517.955 201.451C518.562 201.575 519.106 202.037 519.677 202.268C520.355 202.543 521.405 202.945 522.028 202.348C522.617 201.784 522.336 200.87 522.102 200.212C521.797 199.357 521.393 198.547 520.93 197.765C519.909 196.037 518.702 194.414 517.415 192.872C516.108 191.309 514.746 189.764 513.287 188.337C511.767 186.85 510.103 185.493 508.441 184.165Z" fill="#9F9F9F"/>
<path d="M514.608 198.04C514.517 198.04 514.427 197.998 514.371 197.92C512.427 195.222 507.425 189.889 504.981 187.909C504.856 187.809 504.838 187.628 504.94 187.505C505.042 187.383 505.226 187.365 505.349 187.465C508.074 189.672 513.008 195.038 514.845 197.586C514.937 197.715 514.907 197.895 514.776 197.987C514.725 198.023 514.667 198.04 514.608 198.04Z" fill="#FAFAFA"/>
<path d="M538.733 318.935C539.445 316.029 540.605 312.197 541.089 309.246C542.045 303.411 543.241 295.594 543.525 289.69C543.665 286.768 543.766 282.862 543.622 279.94C543.398 275.37 542.838 269.289 542.297 264.745C541.66 259.397 539.84 252.411 538.465 247.201C537.567 243.801 535.894 239.404 534.659 236.109C533.899 234.08 532.713 231.441 531.82 229.466C531.25 228.204 528.176 221.551 523.683 214.504C522.984 213.408 522.047 211.948 521.304 210.879C520.119 209.174 518.5 206.925 517.258 205.26C517.234 205.228 514.818 202.004 511.775 198.536C505.778 191.7 500.737 187.233 497.015 184.104C495.018 182.426 491.752 179.886 489.882 178.559C487.136 176.609 484.968 175.07 480.404 172.31C476.528 169.967 472.859 168.12 471.095 167.233C468.758 166.057 465.552 164.671 463.151 163.628C459.082 161.859 453.422 160.069 449.187 158.734C446.783 157.976 443.488 157.272 441.042 156.656C436.486 155.509 430.251 154.641 425.574 154.167C419.812 153.582 412.059 153.356 406.272 153.613C400.397 153.873 392.573 154.755 386.805 155.885C382.174 156.793 376.032 158.251 371.566 159.762C365.763 161.727 358.063 164.585 352.656 167.445C347.144 170.361 339.922 174.54 334.869 178.179C329.685 181.913 323.34 187.624 318.645 191.943C318.034 192.552 317.526 193.27 317.124 194.101C309.244 210.385 345.386 263.623 397.849 313.01C447.638 359.879 494.234 386.436 505.592 375.104C509.165 371.512 514.582 365.784 520.346 357.56C522.137 355.006 524.408 351.515 525.964 348.814C527.82 345.593 530.204 341.235 531.711 337.841C534.168 332.309 537.292 324.806 538.733 318.935Z" fill="#696969"/>
<path d="M404.872 306.183C352.408 256.796 316.266 203.558 324.146 187.273C324.243 187.072 324.348 186.878 324.457 186.69C322.387 188.519 320.401 190.328 318.645 191.944C318.035 192.553 317.526 193.271 317.124 194.101C309.244 210.386 345.386 263.624 397.85 313.011C447.638 359.879 494.234 386.437 505.592 375.105C507.045 373.644 508.807 371.823 510.769 369.631C496.842 377.051 452.307 350.835 404.872 306.183Z" fill="#A3A3A3"/>
<path d="M539.354 319.108C540.07 316.189 541.235 312.337 541.721 309.372C542.682 303.508 543.885 295.653 544.169 289.72C544.31 286.784 544.412 282.858 544.267 279.922C544.041 275.33 543.479 269.219 542.936 264.652C542.296 259.278 540.466 252.257 539.084 247.021C538.182 243.605 536.5 239.187 535.26 235.876C534.496 233.837 533.304 231.185 532.407 229.2C531.833 227.931 528.744 221.246 524.23 214.165C523.527 213.063 522.586 211.596 521.839 210.522C520.648 208.808 519.021 206.549 517.773 204.875C517.749 204.843 515.321 201.603 512.263 198.118C506.237 191.249 501.171 186.76 497.432 183.616C495.425 181.93 492.142 179.378 490.263 178.044C487.504 176.085 485.325 174.538 480.739 171.765C476.844 169.41 473.157 167.554 471.385 166.662C469.037 165.48 465.814 164.088 463.402 163.04C459.313 161.263 453.625 159.464 449.37 158.122C446.954 157.36 443.642 156.653 441.185 156.034C436.606 154.881 430.34 154.009 425.64 153.532C419.849 152.945 412.059 152.718 406.243 152.975C400.339 153.237 392.477 154.123 386.68 155.259C382.027 156.171 375.855 157.636 371.367 159.155C365.535 161.129 357.798 164.001 352.364 166.876C346.824 169.806 339.567 174.005 334.49 177.662C329.28 181.414 322.904 187.153 318.186 191.494C329.599 180.106 376.424 206.794 426.457 253.893C479.178 303.522 515.498 357.021 507.579 373.386C507.175 374.221 506.664 374.942 506.051 375.554C511.642 369.948 516.492 364.181 520.878 357.925C522.677 355.357 524.959 351.849 526.522 349.136C528.388 345.899 530.783 341.519 532.298 338.108C534.767 332.548 537.906 325.009 539.354 319.108Z" fill="#B8B8B8"/>
<path d="M481.047 174.966C483.766 175.824 487.068 176.868 490.166 177.974C487.453 176.048 485.27 174.504 480.739 171.765C476.844 169.41 473.157 167.554 471.385 166.662C469.567 165.747 467.229 164.708 465.145 163.798C465.002 163.753 464.848 163.704 464.708 163.66C462.292 162.898 458.98 162.191 456.523 161.572C451.944 160.419 445.678 159.547 440.978 159.07C435.187 158.483 427.397 158.256 421.581 158.513C415.677 158.775 407.815 159.661 402.018 160.797C397.365 161.709 391.193 163.174 386.705 164.694C380.873 166.667 373.136 169.539 367.702 172.414C362.163 175.344 354.905 179.543 349.828 183.2C346.547 185.563 342.805 188.714 339.304 191.807C341.743 192.705 344.336 193.804 347.07 195.096C350.806 195.887 355.101 197.362 359.866 199.47C362.032 197.652 364.184 195.935 366.167 194.507C371.244 190.85 378.502 186.651 384.041 183.721C389.475 180.846 397.213 177.974 403.044 176C407.532 174.481 413.704 173.016 418.357 172.104C424.154 170.968 432.016 170.082 437.92 169.82C443.736 169.562 451.526 169.79 457.317 170.377C462.017 170.854 468.283 171.726 472.862 172.879C475.32 173.497 478.631 174.204 481.047 174.966ZM529.173 308.536C529.89 305.616 531.055 301.765 531.541 298.799C532.502 292.936 533.705 285.08 533.989 279.147C534.13 276.211 534.232 272.286 534.087 269.35C533.861 264.757 533.299 258.646 532.756 254.08C532.116 248.706 530.286 241.685 528.904 236.449C528.002 233.032 526.32 228.614 525.08 225.303C524.316 223.264 523.124 220.612 522.227 218.627C521.653 217.359 518.564 210.674 514.05 203.592C513.347 202.49 512.406 201.023 511.659 199.949C510.468 198.235 508.841 195.976 507.593 194.302C507.58 194.285 506.843 193.303 505.681 191.849C506.671 193.483 507.574 195.063 508.381 196.531C509.093 197.571 509.932 198.877 510.577 199.888C515.092 206.969 518.181 213.654 518.754 214.923C519.652 216.908 520.843 219.56 521.607 221.599C522.848 224.91 524.53 229.328 525.431 232.745C526.813 237.981 528.643 245.001 529.283 250.375C529.826 254.942 530.388 261.053 530.614 265.646C530.759 268.582 530.657 272.507 530.516 275.443C530.231 281.377 529.029 289.232 528.068 295.095C527.582 298.061 526.417 301.912 525.7 304.831C524.253 310.732 521.114 318.271 518.645 323.831C517.13 327.242 514.735 331.622 512.869 334.859C511.305 337.573 509.024 341.081 507.224 343.648C505.927 345.499 504.583 347.303 503.197 349.076C504.046 350.885 504.808 352.633 505.466 354.307C507.287 352.047 509.026 349.735 510.697 347.351C512.496 344.784 514.778 341.276 516.342 338.563C518.207 335.325 520.603 330.946 522.118 327.534C524.587 321.975 527.726 314.436 529.173 308.536Z" fill="#D9D9D9"/>
<path d="M137.318 397.031L135.153 433.918L137.318 470.805L139.483 433.918L137.318 397.031Z" fill="#E9D100"/>
<path d="M100 433.917L137.318 436.057L174.637 433.917L137.318 431.777L100 433.917Z" fill="#E9D100"/>
<path d="M125.476 422.213L136.631 434.597L149.161 445.624L138.005 433.239L125.476 422.213Z" fill="#E9D100"/>
<path d="M125.476 445.624L138.005 434.597L149.161 422.213L136.631 433.239L125.476 445.624Z" fill="#E9D100"/>
<path d="M525.084 385.541L523.684 409.409L525.084 433.277L526.485 409.409L525.084 385.541Z" fill="#E9D100"/>
<path d="M500.937 409.409L525.084 410.794L549.232 409.409L525.084 408.024L500.937 409.409Z" fill="#E9D100"/>
<path d="M517.422 401.835L524.64 409.848L532.747 416.983L525.529 408.97L517.422 401.835Z" fill="#E9D100"/>
<path d="M517.422 416.983L525.529 409.848L532.747 401.835L524.64 408.97L517.422 416.983Z" fill="#E9D100"/>
<path d="M271.383 230.527L270.307 248.854L271.383 267.182L272.458 248.854L271.383 230.527Z" fill="#E9D100"/>
<path d="M252.841 248.854L271.383 249.917L289.924 248.854L271.383 247.791L252.841 248.854Z" fill="#E9D100"/>
<path d="M265.499 243.041L271.041 249.194L277.267 254.673L271.724 248.519L265.499 243.041Z" fill="#E9D100"/>
<path d="M265.499 254.673L271.724 249.194L277.267 243.041L271.041 248.519L265.499 254.673Z" fill="#E9D100"/>
<path d="M194.751 303.013L203.744 312.997L213.845 321.886L204.852 311.902L194.751 303.013Z" fill="#E9D100"/>
<path d="M194.751 321.886L204.852 312.997L213.845 303.013L203.744 311.902L194.751 321.886Z" fill="#E9D100"/>
<path d="M198.239 312.449L204.298 312.796L210.357 312.449L204.298 312.102L198.239 312.449Z" fill="#E9D100"/>
<path d="M204.298 318.438L204.649 312.449L204.298 306.46L203.946 312.449L204.298 318.438Z" fill="#E9D100"/>
<path d="M495.741 488.143L504.734 498.127L514.835 507.016L505.842 497.032L495.741 488.143Z" fill="#E9D100"/>
<path d="M495.741 507.016L505.842 498.127L514.835 488.143L504.734 497.032L495.741 507.016Z" fill="#E9D100"/>
<path d="M499.229 497.578L505.288 497.925L511.347 497.578L505.288 497.23L499.229 497.578Z" fill="#E9D100"/>
<path d="M505.288 503.567L505.64 497.578L505.288 491.589L504.937 497.578L505.288 503.567Z" fill="#E9D100"/>
<path d="M457.419 742.348L393.024 737.242C391.497 737.121 390.321 735.862 390.32 734.349L390.255 620.254L460.592 626.798V739.453C460.592 741.148 459.129 742.483 457.419 742.348Z" fill="#DEDEDE"/>
<path d="M305.102 575.27L290.033 591.212C290.033 591.212 281.027 577.637 269.018 566.093C261.927 559.277 253.132 550.736 247.968 546.56C244.852 544.04 237.458 540.734 232.275 537.391C229.528 535.619 229.11 531.89 231.265 529.447C235.266 524.91 243.215 525.64 248.898 529.389C252.556 531.802 257.064 532.915 260.869 536.19C265.897 538.939 275.448 547.623 282.977 554.884C293.645 561.381 305.102 575.27 305.102 575.27Z" fill="#DEDEDE"/>
<path d="M327.168 590.39L309.27 594.783C309.27 594.783 306.856 573.35 303.88 558.642C302.708 552.85 300.7 549.562 298.057 542.249C295.714 535.762 294.888 537.663 290.295 531.295C289.053 529.573 290.384 527.121 292.447 526.564L294.42 526.032C301.001 524.586 305.651 531.286 308.333 535.243C311.38 539.645 314.578 544.924 317.043 553.879C321.927 561.653 327.168 590.39 327.168 590.39Z" fill="#E6E6E6"/>
<path d="M343.987 645.808C354.623 648.453 360.761 651.292 373.726 651.349C373.726 646.41 372.994 628.58 372.994 618.822C371.132 618.655 368.917 617.906 366.151 616.946L343.987 645.808Z" fill="#007E99"/>
<path d="M366.151 616.946L343.987 645.808C344.386 645.906 346.285 646.419 346.672 646.519L367.436 617.388C367.02 617.246 366.595 617.1 366.151 616.946Z" fill="#E6E6E6"/>
<path d="M367.144 616.171C365.928 615.749 363.612 616.061 362.166 615.588C368.382 597.88 359.428 577.176 362.025 569.911C364.896 561.88 366.733 555.615 369.898 550.179C373.831 543.424 379.679 538.538 383.504 534.769C385.313 532.987 384.772 530.339 382.92 528.602C378.671 524.616 366.121 526.314 361.206 530.417C357.083 533.859 354.492 537.579 351.261 542.308C347.509 546.871 344.189 555.366 340.331 562.441C329.896 581.578 309.539 563.716 296.22 565.973C292.274 566.642 282.14 575.099 282.14 575.099C283.509 577.508 285.278 583.512 287.37 587.4C290.53 592.235 296.856 604.294 303.767 612.798C311.108 621.833 319.885 633.596 328.065 638.062C333.001 640.757 341.579 644.149 342.069 648.509L367.144 616.171Z" fill="#E1E1E1"/>
<path d="M373.726 651.348C373.726 646.408 372.994 628.579 372.994 618.82C371.203 618.66 369.08 617.959 366.46 617.052L367.144 616.17C366.001 615.773 363.896 616.016 362.446 615.656L353.95 648.517C359.732 650.093 365.281 651.31 373.726 651.348Z" fill="#E6E6E6"/>
<path d="M317.174 575.21C316.387 580.609 295.317 595.939 295.317 595.939C295.317 595.939 287.862 581.475 277.197 568.705C270.9 561.165 263.1 551.728 258.428 547.021C255.608 544.18 248.623 540.096 243.839 536.215C241.304 534.158 241.3 530.406 243.712 528.209C248.19 524.131 256.011 525.713 261.247 530.053C264.617 532.846 268.975 534.437 272.396 538.103C277.091 541.377 285.627 551.039 292.311 559.068C302.198 566.675 304.011 574.247 317.174 575.21Z" fill="#E1E1E1"/>
<path d="M399.734 618.312L366.038 609.801L354.18 655.669L387.876 664.181L399.734 618.312Z" fill="#F0F0F0"/>
<path d="M376.849 612.492L364.991 658.36L387.893 664.145L399.752 618.277L376.849 612.492Z" fill="#E6E6E6"/>
<path d="M462.478 743.99L398.082 738.885C396.556 738.763 395.38 737.504 395.379 735.991L395.314 613.268L465.651 619.812V741.095C465.651 742.791 464.188 744.126 462.478 743.99Z" fill="#E1E1E1"/>
<path d="M492.119 685.258C492.119 685.258 440.599 681.471 398.261 672.804C389.98 671.109 365.578 663.669 365.578 663.669L379.519 609.745C379.519 609.745 403.553 616.554 411.762 617.889C441.851 622.785 492.119 620.876 492.119 620.876C506.442 630.682 505.316 678.782 492.119 685.258Z" fill="#DF644A"/>
<path d="M393.844 613.654L393.874 671.771C395.584 672.206 397.085 672.562 398.261 672.803C421.869 677.636 448.328 680.951 467.121 682.938V621.238C450.19 621.192 428.029 620.535 411.762 617.888C407.905 617.26 400.554 615.425 393.844 613.654Z" fill="#9E9E9E"/>
<path d="M364.36 652.566C364.36 654.562 362.723 656.18 360.704 656.18C358.685 656.18 357.048 654.562 357.048 652.566C357.048 650.57 358.685 648.952 360.704 648.952C362.723 648.952 364.36 650.57 364.36 652.566Z" fill="#BFBFBF"/>
<path d="M462.478 743.991L398.082 738.885C396.556 738.764 395.38 737.505 395.379 735.991L395.314 612.299L465.651 618.843V741.095C465.651 742.791 464.188 744.126 462.478 743.991Z" fill="#E1E1E1"/>
<path d="M384.571 532.712C384.786 531.285 384.141 529.746 382.92 528.601C378.671 524.615 366.122 526.313 361.207 530.416C360.31 531.165 359.492 531.929 358.718 532.712H384.571ZM265.112 532.712C263.757 531.879 262.439 531.041 261.247 530.052C256.422 526.053 249.403 524.4 244.827 527.357C239.866 525.577 234.374 525.922 231.265 529.446C230.422 530.403 229.978 531.556 229.908 532.712H265.112ZM291.36 532.712H306.552C303.776 528.994 299.726 524.865 294.42 526.031L292.448 526.564C290.384 527.121 289.053 529.572 290.295 531.294C290.676 531.821 291.028 532.288 291.36 532.712Z" fill="#E6E6E6"/>
<path d="M369.75 379.375C369.75 378.687 369.473 378.027 368.981 377.541C368.489 377.055 367.821 376.781 367.125 376.781H365.917C363.435 376.784 361.035 377.656 359.141 379.242C357.248 380.828 355.985 383.025 355.575 385.444L353.081 400.125H348.75C348.054 400.125 347.386 400.398 346.894 400.885C346.402 401.371 346.125 402.031 346.125 402.719C346.125 403.407 346.402 404.066 346.894 404.553C347.386 405.039 348.054 405.312 348.75 405.312H352.189L347.254 434.7C347.047 435.922 346.404 437.032 345.441 437.826C344.477 438.621 343.258 439.048 342.004 439.031H340.875C340.179 439.031 339.511 439.305 339.019 439.791C338.527 440.277 338.25 440.937 338.25 441.625C338.25 442.313 338.527 442.973 339.019 443.459C339.511 443.945 340.179 444.219 340.875 444.219H342.082C344.565 444.216 346.965 443.344 348.859 441.758C350.752 440.172 352.015 437.975 352.425 435.556L357.517 405.312H361.875C362.571 405.312 363.239 405.039 363.731 404.553C364.223 404.066 364.5 403.407 364.5 402.719C364.5 402.031 364.223 401.371 363.731 400.885C363.239 400.398 362.571 400.125 361.875 400.125H358.384L360.746 386.197C360.953 384.974 361.596 383.865 362.559 383.07C363.523 382.276 364.742 381.848 365.996 381.865H367.125C367.803 381.866 368.456 381.607 368.945 381.142C369.434 380.678 369.723 380.045 369.75 379.375ZM397.391 397.92C397.098 397.739 396.772 397.617 396.432 397.561C396.091 397.504 395.742 397.515 395.406 397.592C395.069 397.669 394.751 397.811 394.47 398.01C394.189 398.209 393.951 398.46 393.769 398.75L389.437 405.598L385.106 398.75C384.737 398.166 384.148 397.75 383.469 397.594C382.79 397.438 382.076 397.556 381.484 397.92C380.892 398.285 380.471 398.867 380.314 399.538C380.156 400.209 380.275 400.915 380.644 401.5L386.34 410.5L380.644 419.5C380.46 419.79 380.337 420.112 380.28 420.449C380.223 420.785 380.234 421.13 380.312 421.462C380.39 421.795 380.533 422.109 380.735 422.386C380.936 422.664 381.19 422.9 381.484 423.08C381.777 423.261 382.103 423.383 382.443 423.439C382.784 423.496 383.133 423.485 383.469 423.408C383.806 423.331 384.124 423.189 384.405 422.99C384.686 422.791 384.924 422.54 385.106 422.25L389.437 415.402L393.769 422.25C393.951 422.54 394.189 422.791 394.47 422.99C394.751 423.189 395.069 423.331 395.406 423.408C395.742 423.485 396.091 423.496 396.432 423.439C396.772 423.383 397.098 423.261 397.391 423.08C397.685 422.9 397.939 422.664 398.14 422.386C398.342 422.109 398.485 421.795 398.563 421.462C398.641 421.13 398.652 420.785 398.595 420.449C398.538 420.112 398.415 419.79 398.231 419.5L392.535 410.5L398.231 401.5C398.415 401.21 398.538 400.888 398.595 400.551C398.652 400.215 398.641 399.87 398.563 399.538C398.485 399.205 398.342 398.891 398.14 398.614C397.939 398.336 397.685 398.1 397.391 397.92ZM376.575 392.862C376.299 392.658 375.985 392.509 375.651 392.425C375.318 392.34 374.97 392.322 374.629 392.37C374.288 392.418 373.959 392.532 373.663 392.706C373.366 392.879 373.107 393.109 372.9 393.381C369.388 398.416 367.508 404.386 367.508 410.5C367.508 416.614 369.388 422.584 372.9 427.619C373.145 427.941 373.462 428.202 373.826 428.382C374.191 428.562 374.592 428.656 375 428.656C375.568 428.656 376.121 428.474 376.575 428.137C376.851 427.933 377.083 427.677 377.259 427.384C377.434 427.091 377.55 426.767 377.599 426.429C377.647 426.092 377.628 425.749 377.543 425.419C377.457 425.089 377.307 424.779 377.1 424.506C374.228 420.387 372.691 415.502 372.691 410.5C372.691 405.498 374.228 400.613 377.1 396.494C377.307 396.221 377.457 395.911 377.543 395.581C377.628 395.251 377.647 394.908 377.599 394.571C377.55 394.233 377.434 393.909 377.259 393.616C377.083 393.323 376.851 393.067 376.575 392.862ZM405.975 393.381C405.557 392.831 404.935 392.467 404.246 392.37C403.557 392.273 402.857 392.45 402.3 392.862C401.743 393.275 401.375 393.89 401.276 394.571C401.178 395.252 401.357 395.943 401.775 396.494C404.647 400.613 406.184 405.498 406.184 410.5C406.184 415.502 404.647 420.387 401.775 424.506C401.568 424.779 401.418 425.089 401.332 425.419C401.247 425.749 401.228 426.092 401.276 426.429C401.325 426.767 401.441 427.091 401.616 427.384C401.792 427.677 402.024 427.933 402.3 428.137C402.754 428.474 403.307 428.656 403.875 428.656C404.283 428.656 404.684 428.562 405.049 428.382C405.413 428.202 405.73 427.941 405.975 427.619C409.487 422.584 411.367 416.614 411.367 410.5C411.367 404.386 409.487 398.416 405.975 393.381Z" fill="#0090AF"/>
<g clip-path="url(#clip0_641_105)">
<path d="M306.309 345.125C305.441 345.126 304.603 344.812 303.954 344.243L286 328.5L304.952 311.882C305.657 311.275 306.576 310.966 307.51 311.024C308.444 311.083 309.317 311.503 309.939 312.193C310.561 312.883 310.881 313.788 310.829 314.71C310.778 315.631 310.359 316.496 309.664 317.115L296.682 328.5L308.668 339.007C309.206 339.478 309.586 340.1 309.757 340.789C309.928 341.478 309.883 342.203 309.628 342.866C309.372 343.53 308.919 344.101 308.327 344.504C307.735 344.908 307.033 345.124 306.313 345.125L306.309 345.125ZM338.047 345.118L356.999 328.5L339.046 312.757C338.34 312.157 337.423 311.855 336.494 311.916C335.564 311.977 334.696 312.397 334.077 313.084C333.458 313.771 333.139 314.671 333.187 315.589C333.235 316.507 333.647 317.369 334.335 317.989L346.321 328.5L333.338 339.881C332.64 340.499 332.219 341.364 332.166 342.287C332.113 343.21 332.433 344.117 333.055 344.808C333.677 345.5 334.551 345.921 335.486 345.979C336.422 346.037 337.342 345.727 338.047 345.118ZM321.451 350.077L328.547 308.078C328.627 307.623 328.615 307.158 328.512 306.708C328.409 306.258 328.217 305.833 327.946 305.456C327.676 305.08 327.332 304.76 326.936 304.515C326.54 304.27 326.098 304.105 325.637 304.029C325.176 303.953 324.704 303.968 324.248 304.073C323.793 304.177 323.363 304.37 322.983 304.639C322.603 304.908 322.281 305.248 322.036 305.641C321.79 306.033 321.625 306.47 321.551 306.925L314.454 348.924C314.377 349.378 314.392 349.842 314.497 350.29C314.602 350.738 314.795 351.161 315.066 351.535C315.337 351.909 315.68 352.227 316.075 352.47C316.471 352.714 316.911 352.878 317.37 352.954C317.565 352.984 317.761 352.999 317.958 353C318.796 352.998 319.608 352.704 320.247 352.169C320.887 351.634 321.314 350.893 321.453 350.077H321.451Z" fill="#0090AF"/>
</g>
<path d="M284.25 413.429C284.25 414.086 284.003 414.656 283.508 415.136C283.013 415.617 282.427 415.857 281.75 415.857H273C273 420.183 272.128 423.851 270.383 426.862L278.508 434.793C279.003 435.273 279.25 435.842 279.25 436.5C279.25 437.158 279.003 437.727 278.508 438.208C278.039 438.688 277.453 438.929 276.75 438.929C276.047 438.929 275.461 438.688 274.992 438.208L267.258 430.732C267.128 430.859 266.932 431.023 266.672 431.226C266.411 431.428 265.865 431.788 265.031 432.307C264.198 432.826 263.352 433.287 262.492 433.692C261.633 434.097 260.565 434.464 259.289 434.793C258.013 435.121 256.75 435.286 255.5 435.286V401.286H250.5V435.286C249.172 435.286 247.85 435.115 246.535 434.774C245.22 434.432 244.087 434.015 243.137 433.521C242.186 433.028 241.327 432.535 240.559 432.041C239.79 431.548 239.224 431.137 238.859 430.808L238.273 430.277L231.125 438.132C230.604 438.663 229.979 438.929 229.25 438.929C228.625 438.929 228.065 438.726 227.57 438.322C227.076 437.866 226.809 437.303 226.77 436.633C226.73 435.963 226.932 435.374 227.375 434.868L235.266 426.255C233.755 423.371 233 419.905 233 415.857H224.25C223.573 415.857 222.987 415.617 222.492 415.136C221.997 414.656 221.75 414.086 221.75 413.429C221.75 412.771 221.997 412.202 222.492 411.721C222.987 411.24 223.573 411 224.25 411H233V399.844L226.242 393.279C225.747 392.799 225.5 392.229 225.5 391.572C225.5 390.914 225.747 390.345 226.242 389.864C226.737 389.383 227.323 389.143 228 389.143C228.677 389.143 229.263 389.383 229.758 389.864L236.516 396.429H269.484L276.242 389.864C276.737 389.383 277.323 389.143 278 389.143C278.677 389.143 279.263 389.383 279.758 389.864C280.253 390.345 280.5 390.914 280.5 391.572C280.5 392.229 280.253 392.799 279.758 393.279L273 399.844V411H281.75C282.427 411 283.013 411.24 283.508 411.721C284.003 412.202 284.25 412.771 284.25 413.429ZM265.5 391.572H240.5C240.5 388.207 241.717 385.342 244.152 382.977C246.587 380.611 249.536 379.429 253 379.429C256.464 379.429 259.413 380.611 261.848 382.977C264.283 385.342 265.5 388.207 265.5 391.572Z" fill="#0090AF"/>
<defs>
<clipPath id="clip0_641_105">
<rect width="71" height="49" fill="white" transform="translate(286 304)"/>
</clipPath>
</defs>
</svg>
